<?xml version="1.0" encoding="UTF-8"?>
<svg id="Layer_2" data-name="Layer 2" xmlns="http://www.w3.org/2000/svg" viewBox="0 0 349.73 77.81">
  <defs>
    <style>
      .cls-1, .cls-2, .cls-3 {
        fill: #105594;
      }

      .cls-4 {
        fill: #2889c9;
      }

      .cls-4, .cls-2, .cls-5 {
        fill-rule: evenodd;
      }

      .cls-5 {
        fill: #1470b7;
      }

      .cls-3 {
        font-family: Inter-Regular, Inter;
        font-size: 34.02px;
      }
    </style>
  </defs>
  <g id="Layer_1-2" data-name="Layer 1">
    <g>
      <g>
        <path class="cls-2" d="M75.29,62.19c-4.14-8.37-28.15-56.79-28.54-56.72,0,0,0,0-.01,0C44.62,1.92,40.6-.37,36.07.05c-4.88.45-8.98,4.17-9.91,8.98-.48,2.52-.09,4.9.88,6.95,0,0-.01,0-.01,0l25.11,50.21.1.2s0,0,0,.01l.13.26s0-.02,0-.03c4.92,9.72,10.11,9.61,20.33,4.43l4.8-4.41c-.09-.17,1.18,2.36-2.23-4.47Z"/>
        <path class="cls-5" d="M46.61,5.25s0,0,0,0c-1.98-3.15-5.47-5.25-9.46-5.25s-7.75,2.26-9.68,5.61h0s-.04.07-.04.07c-.16.28-.3.57-.44.87L1.08,61.74s0,0,.01,0c-.98,2.05-1.37,4.43-.88,6.95.93,4.81,5.03,8.53,9.91,8.98,4.52.42,8.54-1.87,10.66-5.42,0,0,0,0,.01,0,.35.06,18.22-39.76,24.2-51.82.99-1.58,2.73-2.64,4.73-2.64,2.16,0,4.04,1.23,4.96,3.03h0s-7.38-14.78-8.07-15.57Z"/>
      </g>
      <path class="cls-4" d="M54.43,70.8l-7-14.05h0c.38.77.96,1.44,1.69,1.99,2.54,1.93,6.23,1.6,7.86-1.15.55-.92,8.72-17.11,8.72-17.11,5.1-10.86,17.25-14.06,26.53-6.9l.97.72c-.21.42-14.56,30.38-18.35,39.02-2.49,5.68-11.9,5.6-16.87,1.81-1.54-1.17-2.78-2.7-3.55-4.34Z"/>
    </g>
    <g>
      <g>
        <path class="cls-1" d="M111.23,62.5h-4.29l16.3-44.82h4.38l16.3,44.82h-4.29l-14.05-39.5h-.31l-14.05,39.5Z"/>
        <g>
          <rect class="cls-1" x="157.85" y="39.32" width="4.09" height="23.17"/>
          <rect class="cls-1" x="143.64" y="17.68" width="32.5" height="3.68"/>
        </g>
        <path class="cls-1" d="M189.42,17.68v44.82h-4.09V17.68h4.09Z"/>
        <path class="cls-1" d="M276.41,40.09c0,4.67-.83,8.73-2.49,12.18-1.66,3.45-3.95,6.12-6.86,8.01-2.91,1.89-6.26,2.83-10.03,2.83s-7.12-.94-10.03-2.83c-2.91-1.89-5.19-4.56-6.85-8.01-1.66-3.45-2.48-7.51-2.48-12.18s.83-8.73,2.48-12.18c1.66-3.45,3.94-6.12,6.86-8.01,2.92-1.89,6.26-2.83,10.02-2.83s7.12.94,10.03,2.83c2.91,1.89,5.2,4.56,6.86,8.01,1.66,3.45,2.49,7.51,2.49,12.18ZM272.42,40.09c0-4.01-.67-7.45-2.01-10.32-1.34-2.87-3.17-5.06-5.49-6.58-2.32-1.52-4.95-2.28-7.9-2.28s-5.56.76-7.88,2.28c-2.32,1.52-4.15,3.71-5.5,6.57-1.35,2.86-2.02,6.3-2.02,10.33s.67,7.45,2.01,10.31c1.34,2.86,3.17,5.05,5.49,6.58,2.32,1.52,4.95,2.29,7.9,2.29s5.58-.76,7.91-2.28c2.33-1.52,4.16-3.71,5.5-6.58,1.34-2.87,2.01-6.31,1.99-10.32Z"/>
        <g>
          <polygon class="cls-1" points="225.93 40.1 234.08 17.68 229.8 17.68 221.85 40.1 225.93 40.1"/>
          <polygon class="cls-1" points="215.43 57.18 215.4 57.18 201.39 17.68 197.1 17.68 213.41 62.5 217.33 62.5 215.43 57.18"/>
        </g>
      </g>
      <text class="cls-3" transform="translate(285.61 62.69)"><tspan x="0" y="0">360</tspan></text>
    </g>
  </g>
</svg>