<svg width="485" height="127" viewBox="0 0 485 127" fill="none" xmlns="http://www.w3.org/2000/svg">
<path d="M193.595 49.9326H188.19C187.797 47.9124 187.062 46.0496 186.013 44.3443C184.963 42.6389 183.651 41.1435 182.103 39.8579C180.529 38.5723 178.745 37.5753 176.751 36.8669C174.757 36.1586 172.606 35.7913 170.297 35.7913C166.572 35.7913 163.187 36.762 160.144 38.7035C157.1 40.645 154.66 43.4785 152.824 47.2303C150.987 50.982 150.069 55.5472 150.069 60.9781C150.069 66.409 150.987 71.0265 152.824 74.7783C154.66 78.5301 157.1 81.3374 160.144 83.2789C163.187 85.1941 166.572 86.1648 170.297 86.1648C172.606 86.1648 174.757 85.8238 176.751 85.0892C178.745 84.3808 180.529 83.3838 182.103 82.1245C183.678 80.8389 184.989 79.3434 186.013 77.6381C187.062 75.9065 187.77 74.0437 188.19 72.0235H193.595C193.123 74.7258 192.231 77.2445 190.919 79.5533C189.607 81.8883 187.928 83.9085 185.934 85.6664C183.914 87.3979 181.579 88.7622 178.955 89.733C176.331 90.7037 173.445 91.2022 170.297 91.2022C165.365 91.2022 160.983 89.9691 157.153 87.4767C153.322 84.9842 150.331 81.4948 148.154 76.9822C145.976 72.4695 144.9 67.1173 144.9 60.9781C144.9 54.8388 145.976 49.4866 148.154 44.9739C150.331 40.4613 153.322 36.9457 157.153 34.4795C160.983 31.987 165.365 30.7539 170.297 30.7539C173.445 30.7539 176.331 31.2262 178.955 32.1969C181.579 33.1676 183.887 34.5319 185.934 36.2635C187.954 38.0213 189.607 40.0415 190.919 42.3766C192.231 44.7116 193.123 47.204 193.595 49.9326Z" fill="white"/>
<path d="M305.493 60.9527C305.493 67.0919 304.391 72.4179 302.214 76.9305C300.036 81.4694 297.019 84.9588 293.215 87.4513C289.384 89.9437 285.003 91.1768 280.044 91.1768C275.085 91.1768 270.704 89.9437 266.873 87.4513C263.043 84.9588 260.052 81.4694 257.874 76.9305C255.697 72.3917 254.621 67.0657 254.621 60.9527C254.621 54.8396 255.697 49.4874 257.874 44.9748C260.052 40.4359 263.043 36.9465 266.873 34.4541C270.704 31.9616 275.085 30.7285 280.018 30.7285C284.95 30.7285 289.358 31.9616 293.188 34.4541C297.019 36.9465 300.01 40.4359 302.187 44.9748C304.365 49.5137 305.467 54.8396 305.467 60.9527H305.493ZM300.272 60.9527C300.272 55.6792 299.38 51.1665 297.622 47.4148C295.864 43.663 293.451 40.777 290.407 38.783C287.364 36.7891 283.901 35.7921 280.044 35.7921C276.187 35.7921 272.75 36.7891 269.707 38.783C266.664 40.777 264.25 43.6367 262.492 47.3885C260.708 51.1403 259.842 55.6529 259.842 60.9527C259.842 66.2524 260.734 70.7388 262.492 74.4906C264.25 78.2423 266.664 81.1283 269.707 83.1223C272.75 85.1162 276.214 86.1132 280.07 86.1132C283.927 86.1132 287.39 85.1162 290.46 83.1223C293.503 81.1283 295.917 78.2423 297.675 74.4906C299.433 70.7388 300.298 66.2261 300.298 60.9527H300.272Z" fill="white"/>
<path d="M364.288 31.543V90.3646H359.067L324.304 41.093H323.832V90.3646H318.453V31.543H323.648L358.516 80.8671H358.988V31.543H364.262H364.288Z" fill="white"/>
<path d="M428.147 60.9527C428.147 67.0919 427.046 72.4179 424.868 76.9305C422.69 81.4694 419.673 84.9588 415.869 87.4513C412.038 89.9437 407.657 91.1768 402.698 91.1768C397.74 91.1768 393.358 89.9437 389.528 87.4513C385.697 84.9588 382.706 81.4694 380.529 76.9305C378.351 72.3917 377.275 67.0657 377.275 60.9527C377.275 54.8396 378.351 49.4874 380.529 44.9748C382.706 40.4359 385.697 36.9465 389.528 34.4541C393.358 31.9616 397.74 30.7285 402.672 30.7285C407.605 30.7285 412.012 31.9616 415.843 34.4541C419.673 36.9465 422.664 40.4359 424.842 44.9748C427.019 49.5137 428.121 54.8396 428.121 60.9527H428.147ZM422.926 60.9527C422.926 55.6792 422.034 51.1665 420.277 47.4148C418.519 43.663 416.105 40.777 413.062 38.783C410.018 36.7891 406.555 35.7921 402.698 35.7921C398.842 35.7921 395.405 36.7891 392.361 38.783C389.318 40.777 386.904 43.6367 385.146 47.3885C383.362 51.1403 382.496 55.6529 382.496 60.9527C382.496 66.2524 383.388 70.7388 385.146 74.4906C386.904 78.2423 389.318 81.1283 392.361 83.1223C395.405 85.1162 398.868 86.1132 402.725 86.1132C406.581 86.1132 410.044 85.1162 413.114 83.1223C416.158 81.1283 418.571 78.2423 420.329 74.4906C422.087 70.7388 422.953 66.2261 422.953 60.9527H422.926Z" fill="white"/>
<path d="M473.089 46.2612C472.774 42.9817 471.305 40.3843 468.76 38.4428C466.215 36.5013 462.962 35.5306 459.079 35.5306C456.35 35.5306 453.937 36.0028 451.864 36.9474C449.791 37.8919 448.165 39.1774 446.984 40.8303C445.803 42.4832 445.226 44.3722 445.226 46.4711C445.226 48.019 445.567 49.3833 446.223 50.5377C446.905 51.7184 447.797 52.7153 448.926 53.5287C450.054 54.3682 451.339 55.0766 452.73 55.68C454.12 56.2835 455.511 56.7819 456.928 57.1755L463.119 58.9596C465.008 59.4843 466.871 60.1402 468.76 60.9535C470.649 61.7668 472.355 62.7638 473.929 63.9969C475.477 65.2038 476.736 66.6992 477.68 68.4571C478.625 70.2149 479.097 72.3138 479.097 74.7538C479.097 77.9021 478.284 80.7094 476.657 83.2281C475.031 85.7468 472.696 87.7145 469.652 89.1837C466.609 90.6529 462.962 91.3876 458.712 91.3876C454.698 91.3876 451.234 90.7316 448.296 89.3936C445.357 88.0555 443.022 86.219 441.343 83.8577C439.664 81.4965 438.72 78.7679 438.51 75.672H444.019C444.203 77.9808 444.99 79.9486 446.328 81.549C447.666 83.1494 449.424 84.3825 451.549 85.222C453.701 86.0616 456.088 86.4814 458.738 86.4814C461.676 86.4814 464.274 85.9829 466.556 85.0121C468.839 84.0152 470.649 82.6509 471.961 80.8668C473.273 79.0828 473.929 77.0363 473.929 74.6751C473.929 72.6811 473.404 71.002 472.381 69.6639C471.358 68.3259 469.915 67.1715 468.052 66.2532C466.215 65.335 464.064 64.5216 461.624 63.8133L454.593 61.7406C449.975 60.3501 446.407 58.4611 443.836 56.0211C441.291 53.5811 440.005 50.4853 440.005 46.7072C440.005 43.5589 440.845 40.7778 442.55 38.3641C444.255 35.9504 446.538 34.0876 449.45 32.7233C452.362 31.3853 455.616 30.7031 459.236 30.7031C462.857 30.7031 466.137 31.3853 468.944 32.7233C471.751 34.0614 474.007 35.8979 475.66 38.2592C477.313 40.5942 478.205 43.2703 478.31 46.2612H473.115H473.089Z" fill="white"/>
<path d="M232.844 66.3336C233.788 66.0188 234.68 65.6777 235.493 65.2579C238.301 63.7887 240.4 61.7423 241.816 59.1186C243.233 56.495 243.968 53.4779 243.968 50.0409C243.968 46.604 243.259 43.5606 241.816 40.9107C240.4 38.2608 238.274 36.1882 235.467 34.6665C232.66 33.171 229.171 32.4102 224.999 32.4102H206.004V91.2318H211.382V37.2376H224.842C227.937 37.2376 230.509 37.7623 232.555 38.8118C234.601 39.8612 236.123 41.3567 237.146 43.272C238.17 45.1872 238.668 47.4435 238.668 50.0147C238.668 52.5858 238.17 54.8159 237.146 56.6787C236.149 58.5677 234.628 60.0107 232.581 61.0077C231.06 61.7685 229.328 62.2145 227.255 62.4244L227.308 67.3568L240.216 91.2318H246.408L232.817 66.3336H232.844Z" fill="white"/>
<path d="M102.345 7.58949C95.3925 2.00118 86.7345 -0.491267 77.9716 0.610655C69.2087 1.68634 61.2329 6.22521 55.4609 13.3615C52.024 17.6117 49.5053 22.8852 47.9311 28.9983C46.9604 32.855 48.4296 36.8429 51.6829 39.1517C54.9362 41.4605 59.2127 41.5392 62.5447 39.3353C64.5649 37.9973 65.9816 35.9771 66.5851 33.6158C67.3459 30.5462 68.6315 28.0013 70.5992 25.5613C73.1704 22.3605 76.6598 20.3403 80.3591 19.8943C83.8747 19.4745 87.3642 20.4715 90.1452 22.7016C92.9263 24.9579 94.6316 28.1325 94.9464 31.6744C95.2875 35.3999 94.0544 39.2304 91.457 42.4312C87.1805 47.7309 81.3561 49.8823 73.5377 51.2466L70.8353 51.6401C68.9726 51.9025 66.8999 52.1649 64.2763 52.4797L51.8665 53.7915C36.2297 55.4706 20.0682 57.176 8.65545 71.3173C-3.30827 86.1146 -1.4455 106.789 12.8795 118.385C22.9542 126.518 36.0986 127.699 47.1965 122.53C51.8928 120.353 56.2218 117.021 59.7636 112.613C63.2006 108.363 65.7193 103.089 67.2934 96.9764C68.2642 93.1196 66.795 89.1317 63.5417 86.8229C60.2621 84.5141 56.0119 84.4354 52.6536 86.6393C50.6597 87.9773 49.2167 89.9975 48.6132 92.3326C47.8524 95.4022 46.5668 97.9471 44.5991 100.387C42.028 103.588 38.5385 105.608 34.8392 106.054C31.3236 106.5 27.8604 105.477 25.0793 103.247C22.2983 100.991 20.5929 97.8159 20.2781 94.274C19.937 90.5485 21.1701 86.718 23.7675 83.5172C28.0965 78.165 33.9997 76.0136 41.9492 74.6493L44.3892 74.3083C46.252 74.0459 48.3509 73.7835 50.9483 73.4687L63.3318 72.1569C78.9686 70.504 95.1301 68.7724 106.543 54.6311C118.507 39.8338 116.644 19.1597 102.319 7.56326L102.345 7.58949Z" fill="url(#paint0_linear_1127_2793)"/>
<path d="M88.3603 49.9352L51.8395 53.8181C36.2027 55.471 20.0412 57.2026 8.6284 71.3439C4.45684 76.4862 1.83321 82.5731 1.01989 88.9485C0.862471 90.1816 8.73334 77.0634 29.1451 75.8041L51.1573 73.4691H51.236L63.331 72.1835C73.1695 71.1341 83.1918 70.0584 92.1383 65.913C97.4118 63.4468 102.318 59.9312 106.568 54.6577C110.74 49.5154 113.363 43.4286 114.177 37.0532C114.334 35.8201 109.139 47.0492 88.3603 49.9352Z" fill="url(#paint1_linear_1127_2793)"/>
<path d="M160.603 113.646C160.546 113.061 160.415 112.516 160.211 112.01C160.006 111.499 159.719 111.053 159.35 110.672C158.981 110.291 158.523 109.993 157.978 109.777C157.438 109.561 156.802 109.453 156.069 109.453C154.983 109.453 153.932 109.74 152.915 110.314C151.904 110.888 151.026 111.732 150.282 112.845C149.543 113.953 149.04 115.311 148.773 116.919C148.512 118.493 148.537 119.837 148.85 120.95C149.162 122.064 149.716 122.916 150.512 123.507C151.307 124.093 152.299 124.385 153.486 124.385C154.555 124.385 155.549 124.146 156.469 123.669C157.39 123.186 158.165 122.502 158.796 121.615C159.427 120.729 159.836 119.678 160.023 118.462L160.501 118.624H154.91L155.174 117.192H161.796L161.532 118.624C161.293 120.118 160.785 121.408 160.006 122.493C159.228 123.578 158.262 124.416 157.108 125.007C155.955 125.593 154.699 125.885 153.341 125.885C151.819 125.885 150.546 125.519 149.523 124.786C148.506 124.047 147.793 123.007 147.384 121.666C146.975 120.325 146.924 118.743 147.231 116.919C147.447 115.55 147.827 114.314 148.373 113.212C148.918 112.11 149.589 111.169 150.384 110.391C151.185 109.607 152.077 109.004 153.06 108.584C154.049 108.164 155.094 107.953 156.197 107.953C157.151 107.953 158.001 108.104 158.745 108.405C159.489 108.706 160.12 109.121 160.637 109.649C161.154 110.172 161.546 110.777 161.813 111.465C162.086 112.146 162.228 112.874 162.239 113.646H160.603ZM168.79 125.919C167.568 125.919 166.559 125.635 165.764 125.067C164.969 124.493 164.412 123.7 164.094 122.689C163.775 121.672 163.727 120.502 163.949 119.178C164.17 117.86 164.608 116.689 165.261 115.666C165.915 114.638 166.721 113.834 167.682 113.254C168.642 112.669 169.684 112.377 170.809 112.377C171.52 112.377 172.184 112.507 172.804 112.769C173.423 113.024 173.949 113.419 174.381 113.953C174.818 114.482 175.122 115.149 175.292 115.956C175.463 116.757 175.457 117.706 175.275 118.803L175.156 119.553H164.929L165.142 118.215H173.827C173.969 117.374 173.929 116.618 173.707 115.948C173.486 115.277 173.108 114.746 172.574 114.354C172.045 113.956 171.389 113.757 170.605 113.757C169.804 113.757 169.045 113.982 168.329 114.431C167.619 114.879 167.017 115.465 166.523 116.186C166.034 116.902 165.719 117.666 165.577 118.479L165.406 119.485C165.224 120.593 165.247 121.521 165.474 122.271C165.702 123.016 166.113 123.578 166.71 123.959C167.307 124.34 168.071 124.53 169.003 124.53C169.628 124.53 170.193 124.433 170.699 124.24C171.204 124.047 171.645 123.789 172.02 123.465C172.395 123.135 172.696 122.774 172.923 122.382L174.278 122.851C173.988 123.402 173.579 123.911 173.051 124.377C172.528 124.843 171.906 125.218 171.184 125.502C170.469 125.78 169.67 125.919 168.79 125.919ZM187.476 115.428L186.019 115.803C185.945 115.411 185.809 115.058 185.61 114.746C185.417 114.428 185.135 114.178 184.766 113.996C184.403 113.808 183.925 113.715 183.334 113.715C182.448 113.715 181.684 113.931 181.042 114.362C180.4 114.789 180.025 115.334 179.917 115.999C179.826 116.556 179.942 117.007 180.266 117.354C180.596 117.7 181.147 117.973 181.92 118.172L183.829 118.658C184.885 118.931 185.638 119.357 186.087 119.936C186.542 120.516 186.698 121.249 186.556 122.135C186.431 122.874 186.116 123.527 185.61 124.095C185.11 124.664 184.468 125.11 183.684 125.433C182.905 125.757 182.036 125.919 181.076 125.919C179.786 125.919 178.772 125.629 178.033 125.05C177.3 124.47 176.908 123.635 176.857 122.544L178.383 122.203C178.428 122.976 178.692 123.561 179.175 123.959C179.664 124.357 180.351 124.556 181.238 124.556C182.249 124.556 183.099 124.325 183.786 123.865C184.474 123.405 184.868 122.837 184.971 122.161C185.067 121.627 184.968 121.183 184.672 120.831C184.383 120.479 183.888 120.218 183.189 120.047L181.153 119.536C180.056 119.257 179.28 118.823 178.826 118.232C178.377 117.635 178.226 116.899 178.374 116.024C178.493 115.303 178.795 114.669 179.278 114.124C179.76 113.578 180.371 113.152 181.11 112.845C181.849 112.533 182.655 112.377 183.53 112.377C184.735 112.377 185.653 112.649 186.283 113.195C186.914 113.735 187.312 114.479 187.476 115.428ZM196.119 112.556L195.906 113.877H189.65L189.872 112.556H196.119ZM192.335 109.419H193.861L191.73 122.229C191.639 122.774 191.662 123.203 191.798 123.516C191.934 123.823 192.145 124.041 192.429 124.172C192.713 124.297 193.025 124.36 193.366 124.36C193.565 124.36 193.736 124.348 193.878 124.325C194.025 124.297 194.156 124.269 194.27 124.24L194.381 125.612C194.216 125.669 194.02 125.72 193.792 125.766C193.565 125.817 193.292 125.843 192.974 125.843C192.417 125.843 191.903 125.72 191.432 125.476C190.96 125.232 190.602 124.868 190.358 124.385C190.113 123.902 190.048 123.303 190.162 122.587L192.335 109.419ZM200.505 125.945C199.715 125.945 199.019 125.791 198.417 125.485C197.814 125.172 197.366 124.723 197.07 124.138C196.78 123.547 196.701 122.831 196.831 121.99C196.945 121.343 197.161 120.797 197.479 120.354C197.803 119.911 198.212 119.547 198.706 119.263C199.201 118.973 199.769 118.746 200.411 118.581C201.053 118.416 201.752 118.291 202.508 118.206C203.246 118.115 203.877 118.036 204.4 117.968C204.922 117.899 205.329 117.791 205.618 117.644C205.908 117.496 206.081 117.257 206.138 116.928L206.189 116.621C206.337 115.729 206.201 115.027 205.78 114.516C205.36 113.999 204.655 113.74 203.667 113.74C202.724 113.74 201.905 113.95 201.212 114.371C200.525 114.786 200.013 115.271 199.678 115.828L198.331 115.308C198.741 114.593 199.243 114.021 199.84 113.595C200.437 113.164 201.076 112.854 201.758 112.666C202.439 112.473 203.113 112.377 203.778 112.377C204.278 112.377 204.786 112.442 205.303 112.573C205.82 112.703 206.283 112.931 206.692 113.254C207.107 113.573 207.411 114.019 207.604 114.593C207.803 115.161 207.831 115.882 207.689 116.757L206.206 125.646H204.689L205.039 123.575H204.945C204.706 123.962 204.377 124.337 203.956 124.7C203.542 125.064 203.045 125.362 202.465 125.595C201.885 125.828 201.232 125.945 200.505 125.945ZM200.888 124.556C201.695 124.556 202.425 124.377 203.079 124.019C203.738 123.661 204.278 123.186 204.698 122.595C205.124 121.999 205.397 121.343 205.516 120.627L205.831 118.735C205.706 118.843 205.502 118.939 205.218 119.024C204.939 119.11 204.624 119.186 204.272 119.254C203.925 119.317 203.576 119.371 203.224 119.416C202.877 119.462 202.57 119.502 202.303 119.536C201.547 119.627 200.888 119.769 200.326 119.962C199.769 120.155 199.323 120.422 198.988 120.763C198.653 121.098 198.442 121.53 198.357 122.058C198.226 122.854 198.4 123.47 198.877 123.908C199.36 124.34 200.03 124.556 200.888 124.556ZM201.289 110.749L200.079 110.681C200.226 109.925 200.576 109.306 201.127 108.823C201.678 108.34 202.295 108.098 202.976 108.098C203.323 108.098 203.616 108.161 203.854 108.286C204.099 108.405 204.323 108.544 204.528 108.703C204.732 108.857 204.945 108.993 205.167 109.112C205.394 109.232 205.661 109.291 205.968 109.291C206.314 109.291 206.638 109.166 206.939 108.916C207.246 108.666 207.442 108.357 207.528 107.987L208.695 108.124C208.536 108.885 208.178 109.496 207.621 109.956C207.07 110.411 206.465 110.638 205.806 110.638C205.425 110.638 205.116 110.578 204.877 110.459C204.644 110.334 204.434 110.195 204.246 110.041C204.064 109.882 203.868 109.743 203.658 109.624C203.448 109.504 203.172 109.445 202.831 109.445C202.468 109.445 202.141 109.57 201.851 109.82C201.562 110.07 201.374 110.379 201.289 110.749ZM214.89 125.919C213.742 125.919 212.776 125.629 211.992 125.05C211.208 124.465 210.654 123.655 210.33 122.621C210.006 121.587 209.952 120.394 210.168 119.041C210.384 117.723 210.813 116.564 211.455 115.564C212.103 114.558 212.898 113.777 213.841 113.22C214.785 112.658 215.81 112.377 216.918 112.377C218.072 112.377 219.037 112.669 219.816 113.254C220.6 113.84 221.154 114.649 221.478 115.683C221.807 116.718 221.864 117.914 221.648 119.271C221.432 120.584 221.001 121.74 220.353 122.74C219.705 123.735 218.91 124.513 217.966 125.075C217.029 125.638 216.003 125.919 214.89 125.919ZM214.907 124.53C215.839 124.53 216.668 124.283 217.395 123.789C218.128 123.289 218.733 122.624 219.211 121.794C219.688 120.959 220.009 120.041 220.174 119.041C220.327 118.087 220.31 117.209 220.123 116.408C219.935 115.607 219.574 114.965 219.04 114.482C218.506 113.999 217.796 113.757 216.91 113.757C215.983 113.757 215.154 114.01 214.421 114.516C213.688 115.016 213.083 115.686 212.606 116.527C212.128 117.362 211.81 118.277 211.651 119.271C211.492 120.232 211.503 121.11 211.685 121.905C211.873 122.7 212.233 123.337 212.768 123.814C213.307 124.291 214.02 124.53 214.907 124.53ZM234.359 125.919C233.285 125.919 232.39 125.635 231.675 125.067C230.959 124.499 230.459 123.706 230.175 122.689C229.89 121.672 229.859 120.487 230.081 119.135C230.308 117.789 230.731 116.61 231.351 115.598C231.976 114.581 232.74 113.791 233.643 113.229C234.552 112.661 235.544 112.377 236.618 112.377C237.419 112.377 238.058 112.519 238.535 112.803C239.018 113.081 239.385 113.428 239.635 113.843C239.885 114.257 240.064 114.661 240.172 115.053H240.308L241.45 108.192H242.976L240.078 125.646H238.604L239.013 123.218H238.825C238.581 123.615 238.26 124.024 237.862 124.445C237.47 124.86 236.987 125.209 236.413 125.493C235.839 125.777 235.155 125.919 234.359 125.919ZM234.692 124.53C235.538 124.53 236.302 124.3 236.984 123.84C237.672 123.374 238.246 122.735 238.706 121.922C239.172 121.104 239.49 120.166 239.66 119.11C239.836 118.064 239.834 117.141 239.652 116.34C239.47 115.533 239.118 114.902 238.595 114.448C238.072 113.987 237.382 113.757 236.524 113.757C235.655 113.757 234.882 113.996 234.206 114.473C233.53 114.945 232.97 115.584 232.527 116.391C232.089 117.198 231.785 118.104 231.615 119.11C231.45 120.127 231.45 121.044 231.615 121.862C231.78 122.681 232.115 123.331 232.621 123.814C233.132 124.291 233.822 124.53 234.692 124.53ZM249.149 125.919C247.927 125.919 246.919 125.635 246.123 125.067C245.328 124.493 244.771 123.7 244.453 122.689C244.135 121.672 244.086 120.502 244.308 119.178C244.53 117.86 244.967 116.689 245.621 115.666C246.274 114.638 247.081 113.834 248.041 113.254C249.001 112.669 250.044 112.377 251.169 112.377C251.879 112.377 252.544 112.507 253.163 112.769C253.782 113.024 254.308 113.419 254.74 113.953C255.177 114.482 255.481 115.149 255.652 115.956C255.822 116.757 255.817 117.706 255.635 118.803L255.515 119.553H245.288L245.501 118.215H254.186C254.328 117.374 254.288 116.618 254.067 115.948C253.845 115.277 253.467 114.746 252.933 114.354C252.405 113.956 251.748 113.757 250.964 113.757C250.163 113.757 249.405 113.982 248.689 114.431C247.979 114.879 247.376 115.465 246.882 116.186C246.393 116.902 246.078 117.666 245.936 118.479L245.765 119.485C245.584 120.593 245.606 121.521 245.834 122.271C246.061 123.016 246.473 123.578 247.069 123.959C247.666 124.34 248.43 124.53 249.362 124.53C249.987 124.53 250.552 124.433 251.058 124.24C251.564 124.047 252.004 123.789 252.379 123.465C252.754 123.135 253.055 122.774 253.282 122.382L254.638 122.851C254.348 123.402 253.939 123.911 253.41 124.377C252.888 124.843 252.265 125.218 251.544 125.502C250.828 125.78 250.03 125.919 249.149 125.919ZM263.901 125.646L266.799 108.192H272.432C273.671 108.192 274.668 108.428 275.424 108.899C276.18 109.371 276.699 110.013 276.983 110.825C277.273 111.638 277.333 112.556 277.162 113.578C276.998 114.59 276.634 115.504 276.072 116.323C275.515 117.135 274.779 117.78 273.864 118.257C272.955 118.735 271.887 118.973 270.66 118.973H266.228L266.466 117.541H270.856C271.77 117.541 272.557 117.371 273.216 117.03C273.881 116.683 274.412 116.212 274.81 115.615C275.208 115.013 275.469 114.334 275.594 113.578C275.719 112.811 275.68 112.129 275.475 111.533C275.276 110.936 274.901 110.47 274.35 110.135C273.805 109.794 273.072 109.624 272.151 109.624H268.154L265.495 125.646H263.901ZM278.103 125.646L280.285 112.556H281.81L279.628 125.646H278.103ZM281.597 110.28C281.279 110.28 281.009 110.172 280.787 109.956C280.572 109.74 280.466 109.479 280.472 109.172C280.483 108.882 280.6 108.632 280.822 108.422C281.049 108.206 281.316 108.098 281.623 108.098C281.941 108.098 282.211 108.209 282.432 108.431C282.654 108.646 282.759 108.908 282.748 109.215C282.742 109.504 282.626 109.754 282.398 109.965C282.171 110.175 281.904 110.28 281.597 110.28ZM286.013 117.465L284.657 125.646H283.14L285.322 112.556H286.797L286.456 114.61H286.592C287.001 113.939 287.567 113.402 288.288 112.999C289.015 112.59 289.859 112.385 290.819 112.385C291.694 112.385 292.433 112.57 293.035 112.939C293.643 113.303 294.075 113.84 294.331 114.55C294.592 115.26 294.638 116.132 294.467 117.166L293.044 125.646H291.527L292.925 117.26C293.101 116.192 292.944 115.345 292.456 114.72C291.973 114.09 291.226 113.774 290.214 113.774C289.527 113.774 288.888 113.922 288.297 114.218C287.711 114.513 287.217 114.939 286.814 115.496C286.41 116.047 286.143 116.703 286.013 117.465ZM303.877 112.556L303.664 113.877H297.408L297.63 112.556H303.877ZM300.093 109.419H301.618L299.488 122.229C299.397 122.774 299.42 123.203 299.556 123.516C299.692 123.823 299.903 124.041 300.187 124.172C300.471 124.297 300.783 124.36 301.124 124.36C301.323 124.36 301.493 124.348 301.635 124.325C301.783 124.297 301.914 124.269 302.028 124.24L302.138 125.612C301.974 125.669 301.778 125.72 301.55 125.766C301.323 125.817 301.05 125.843 300.732 125.843C300.175 125.843 299.661 125.72 299.189 125.476C298.718 125.232 298.36 124.868 298.116 124.385C297.871 123.902 297.806 123.303 297.92 122.587L300.093 109.419ZM313.785 120.644L315.14 112.556H316.657L314.476 125.646H312.959L313.317 123.473H313.206C312.797 124.144 312.217 124.703 311.467 125.152C310.723 125.595 309.871 125.817 308.91 125.817C308.075 125.817 307.362 125.635 306.771 125.271C306.186 124.902 305.768 124.362 305.518 123.652C305.268 122.942 305.229 122.07 305.399 121.036L306.822 112.556H308.339L306.942 120.942C306.777 121.965 306.942 122.789 307.436 123.414C307.936 124.033 308.657 124.343 309.601 124.343C310.192 124.343 310.782 124.2 311.373 123.916C311.97 123.632 312.487 123.218 312.925 122.672C313.368 122.121 313.655 121.445 313.785 120.644ZM317.992 125.646L320.174 112.556H321.648L321.307 114.567H321.418C321.782 113.908 322.324 113.377 323.046 112.973C323.773 112.564 324.549 112.36 325.373 112.36C325.498 112.36 325.637 112.362 325.79 112.368C325.944 112.368 326.072 112.374 326.174 112.385L325.91 113.928C325.841 113.916 325.722 113.899 325.552 113.877C325.387 113.854 325.202 113.843 324.998 113.843C324.316 113.843 323.685 113.987 323.106 114.277C322.532 114.561 322.049 114.956 321.657 115.462C321.27 115.968 321.02 116.544 320.907 117.192L319.509 125.646H317.992ZM329.692 125.945C328.903 125.945 328.206 125.791 327.604 125.485C327.002 125.172 326.553 124.723 326.258 124.138C325.968 123.547 325.888 122.831 326.019 121.99C326.133 121.343 326.349 120.797 326.667 120.354C326.991 119.911 327.4 119.547 327.894 119.263C328.388 118.973 328.956 118.746 329.599 118.581C330.241 118.416 330.939 118.291 331.695 118.206C332.434 118.115 333.064 118.036 333.587 117.968C334.11 117.899 334.516 117.791 334.806 117.644C335.096 117.496 335.269 117.257 335.326 116.928L335.377 116.621C335.525 115.729 335.388 115.027 334.968 114.516C334.547 113.999 333.843 113.74 332.854 113.74C331.911 113.74 331.093 113.95 330.4 114.371C329.712 114.786 329.201 115.271 328.866 115.828L327.519 115.308C327.928 114.593 328.431 114.021 329.028 113.595C329.624 113.164 330.263 112.854 330.945 112.666C331.627 112.473 332.3 112.377 332.965 112.377C333.465 112.377 333.974 112.442 334.491 112.573C335.008 112.703 335.471 112.931 335.88 113.254C336.295 113.573 336.599 114.019 336.792 114.593C336.991 115.161 337.019 115.882 336.877 116.757L335.394 125.646H333.877L334.226 123.575H334.133C333.894 123.962 333.564 124.337 333.144 124.7C332.729 125.064 332.232 125.362 331.653 125.595C331.073 125.828 330.42 125.945 329.692 125.945ZM330.076 124.556C330.883 124.556 331.613 124.377 332.266 124.019C332.925 123.661 333.465 123.186 333.885 122.595C334.312 121.999 334.584 121.343 334.704 120.627L335.019 118.735C334.894 118.843 334.689 118.939 334.405 119.024C334.127 119.11 333.812 119.186 333.459 119.254C333.113 119.317 332.763 119.371 332.411 119.416C332.064 119.462 331.758 119.502 331.491 119.536C330.735 119.627 330.076 119.769 329.513 119.962C328.956 120.155 328.51 120.422 328.175 120.763C327.84 121.098 327.63 121.53 327.545 122.058C327.414 122.854 327.587 123.47 328.064 123.908C328.547 124.34 329.218 124.556 330.076 124.556ZM345.52 125.646H343.85L353.097 108.192H354.802L358.253 125.646H356.583L353.677 110.263H353.566L345.52 125.646ZM347.839 118.956H356.498L356.259 120.388H347.6L347.839 118.956ZM363.302 117.465L361.947 125.646H360.43L362.611 112.556H364.086L363.745 114.61H363.881C364.29 113.939 364.856 113.402 365.577 112.999C366.305 112.59 367.148 112.385 368.108 112.385C368.983 112.385 369.722 112.57 370.324 112.939C370.932 113.303 371.364 113.84 371.62 114.55C371.881 115.26 371.927 116.132 371.756 117.166L370.333 125.646H368.816L370.214 117.26C370.39 116.192 370.233 115.345 369.745 114.72C369.262 114.09 368.515 113.774 367.503 113.774C366.816 113.774 366.177 113.922 365.586 114.218C365.001 114.513 364.506 114.939 364.103 115.496C363.699 116.047 363.432 116.703 363.302 117.465ZM381.166 112.556L380.953 113.877H374.697L374.919 112.556H381.166ZM377.382 109.419H378.907L376.777 122.229C376.686 122.774 376.709 123.203 376.845 123.516C376.981 123.823 377.192 124.041 377.476 124.172C377.76 124.297 378.072 124.36 378.413 124.36C378.612 124.36 378.782 124.348 378.925 124.325C379.072 124.297 379.203 124.269 379.317 124.24L379.427 125.612C379.263 125.669 379.067 125.72 378.839 125.766C378.612 125.817 378.339 125.843 378.021 125.843C377.464 125.843 376.95 125.72 376.479 125.476C376.007 125.232 375.649 124.868 375.405 124.385C375.16 123.902 375.095 123.303 375.209 122.587L377.382 109.419ZM381.947 125.646L384.128 112.556H385.654L383.472 125.646H381.947ZM385.441 110.28C385.123 110.28 384.853 110.172 384.631 109.956C384.415 109.74 384.31 109.479 384.316 109.172C384.327 108.882 384.444 108.632 384.665 108.422C384.893 108.206 385.16 108.098 385.466 108.098C385.785 108.098 386.055 108.209 386.276 108.431C386.498 108.646 386.603 108.908 386.591 109.215C386.586 109.504 386.469 109.754 386.242 109.965C386.015 110.175 385.748 110.28 385.441 110.28ZM392.064 125.919C390.882 125.919 389.907 125.627 389.14 125.041C388.373 124.456 387.836 123.655 387.53 122.638C387.229 121.615 387.186 120.456 387.402 119.161C387.618 117.843 388.052 116.675 388.706 115.658C389.359 114.635 390.166 113.834 391.126 113.254C392.092 112.669 393.146 112.377 394.288 112.377C395.169 112.377 395.936 112.547 396.589 112.888C397.243 113.223 397.748 113.698 398.106 114.311C398.464 114.919 398.635 115.629 398.618 116.442H397.084C397.044 115.686 396.768 115.05 396.257 114.533C395.751 114.016 395.035 113.757 394.109 113.757C393.263 113.757 392.479 113.985 391.757 114.439C391.035 114.888 390.425 115.516 389.925 116.323C389.43 117.124 389.098 118.053 388.927 119.11C388.746 120.172 388.763 121.112 388.979 121.931C389.194 122.743 389.581 123.379 390.138 123.84C390.7 124.3 391.41 124.53 392.268 124.53C392.854 124.53 393.405 124.422 393.922 124.206C394.439 123.985 394.896 123.672 395.294 123.269C395.692 122.86 395.996 122.379 396.206 121.828H397.74C397.484 122.624 397.081 123.328 396.53 123.942C395.984 124.556 395.331 125.039 394.569 125.391C393.808 125.743 392.973 125.919 392.064 125.919ZM404.991 125.919C403.844 125.919 402.878 125.629 402.094 125.05C401.309 124.465 400.756 123.655 400.432 122.621C400.108 121.587 400.054 120.394 400.27 119.041C400.486 117.723 400.915 116.564 401.557 115.564C402.204 114.558 403 113.777 403.943 113.22C404.886 112.658 405.912 112.377 407.02 112.377C408.173 112.377 409.139 112.669 409.917 113.254C410.702 113.84 411.256 114.649 411.579 115.683C411.909 116.718 411.966 117.914 411.75 119.271C411.534 120.584 411.102 121.74 410.454 122.74C409.807 123.735 409.011 124.513 408.068 125.075C407.131 125.638 406.105 125.919 404.991 125.919ZM405.008 124.53C405.94 124.53 406.77 124.283 407.497 123.789C408.23 123.289 408.835 122.624 409.312 121.794C409.79 120.959 410.111 120.041 410.275 119.041C410.429 118.087 410.412 117.209 410.224 116.408C410.037 115.607 409.676 114.965 409.142 114.482C408.608 113.999 407.898 113.757 407.011 113.757C406.085 113.757 405.256 114.01 404.523 114.516C403.79 115.016 403.184 115.686 402.707 116.527C402.23 117.362 401.912 118.277 401.753 119.271C401.594 120.232 401.605 121.11 401.787 121.905C401.974 122.7 402.335 123.337 402.869 123.814C403.409 124.291 404.122 124.53 405.008 124.53ZM413.523 125.646L415.705 112.556H417.18L416.839 114.567H416.949C417.313 113.908 417.856 113.377 418.577 112.973C419.305 112.564 420.08 112.36 420.904 112.36C421.029 112.36 421.168 112.362 421.322 112.368C421.475 112.368 421.603 112.374 421.705 112.385L421.441 113.928C421.373 113.916 421.253 113.899 421.083 113.877C420.918 113.854 420.733 113.843 420.529 113.843C419.847 113.843 419.216 113.987 418.637 114.277C418.063 114.561 417.58 114.956 417.188 115.462C416.802 115.968 416.552 116.544 416.438 117.192L415.04 125.646H413.523ZM421.601 125.646L423.783 112.556H425.258L424.917 114.567H425.028C425.391 113.908 425.934 113.377 426.655 112.973C427.383 112.564 428.158 112.36 428.982 112.36C429.107 112.36 429.246 112.362 429.4 112.368C429.553 112.368 429.681 112.374 429.783 112.385L429.519 113.928C429.451 113.916 429.331 113.899 429.161 113.877C428.996 113.854 428.812 113.843 428.607 113.843C427.925 113.843 427.295 113.987 426.715 114.277C426.141 114.561 425.658 114.956 425.266 115.462C424.88 115.968 424.63 116.544 424.516 117.192L423.118 125.646H421.601ZM434.429 125.919C433.281 125.919 432.315 125.629 431.531 125.05C430.747 124.465 430.193 123.655 429.869 122.621C429.545 121.587 429.491 120.394 429.707 119.041C429.923 117.723 430.352 116.564 430.994 115.564C431.642 114.558 432.437 113.777 433.381 113.22C434.324 112.658 435.349 112.377 436.457 112.377C437.611 112.377 438.577 112.669 439.355 113.254C440.139 113.84 440.693 114.649 441.017 115.683C441.346 116.718 441.403 117.914 441.187 119.271C440.971 120.584 440.54 121.74 439.892 122.74C439.244 123.735 438.449 124.513 437.506 125.075C436.568 125.638 435.542 125.919 434.429 125.919ZM434.446 124.53C435.378 124.53 436.207 124.283 436.934 123.789C437.667 123.289 438.273 122.624 438.75 121.794C439.227 120.959 439.548 120.041 439.713 119.041C439.866 118.087 439.849 117.209 439.662 116.408C439.474 115.607 439.113 114.965 438.579 114.482C438.045 113.999 437.335 113.757 436.449 113.757C435.523 113.757 434.693 114.01 433.96 114.516C433.227 115.016 432.622 115.686 432.145 116.527C431.667 117.362 431.349 118.277 431.19 119.271C431.031 120.232 431.042 121.11 431.224 121.905C431.412 122.7 431.773 123.337 432.307 123.814C432.846 124.291 433.559 124.53 434.446 124.53ZM453.461 115.428L452.003 115.803C451.93 115.411 451.793 115.058 451.594 114.746C451.401 114.428 451.12 114.178 450.751 113.996C450.387 113.808 449.91 113.715 449.319 113.715C448.432 113.715 447.668 113.931 447.026 114.362C446.384 114.789 446.009 115.334 445.901 115.999C445.81 116.556 445.927 117.007 446.251 117.354C446.58 117.7 447.131 117.973 447.904 118.172L449.813 118.658C450.87 118.931 451.623 119.357 452.072 119.936C452.526 120.516 452.682 121.249 452.54 122.135C452.415 122.874 452.1 123.527 451.594 124.095C451.094 124.664 450.452 125.11 449.668 125.433C448.89 125.757 448.02 125.919 447.06 125.919C445.77 125.919 444.756 125.629 444.018 125.05C443.285 124.47 442.893 123.635 442.841 122.544L444.367 122.203C444.412 122.976 444.677 123.561 445.16 123.959C445.648 124.357 446.336 124.556 447.222 124.556C448.233 124.556 449.083 124.325 449.77 123.865C450.458 123.405 450.853 122.837 450.955 122.161C451.052 121.627 450.952 121.183 450.657 120.831C450.367 120.479 449.873 120.218 449.174 120.047L447.137 119.536C446.04 119.257 445.265 118.823 444.81 118.232C444.361 117.635 444.211 116.899 444.358 116.024C444.478 115.303 444.779 114.669 445.262 114.124C445.745 113.578 446.356 113.152 447.094 112.845C447.833 112.533 448.64 112.377 449.515 112.377C450.719 112.377 451.637 112.649 452.268 113.195C452.898 113.735 453.296 114.479 453.461 115.428ZM454.782 125.646L456.964 112.556H458.49L456.308 125.646H454.782ZM458.277 110.28C457.959 110.28 457.689 110.172 457.467 109.956C457.251 109.74 457.146 109.479 457.152 109.172C457.163 108.882 457.28 108.632 457.501 108.422C457.729 108.206 457.996 108.098 458.302 108.098C458.621 108.098 458.89 108.209 459.112 108.431C459.334 108.646 459.439 108.908 459.427 109.215C459.422 109.504 459.305 109.754 459.078 109.965C458.851 110.175 458.584 110.28 458.277 110.28ZM472.135 112.556L465.172 125.646H463.553L460.954 112.556H462.53L464.576 123.644H464.687L470.422 112.556H472.135ZM475.645 125.945C474.856 125.945 474.16 125.791 473.557 125.485C472.955 125.172 472.506 124.723 472.211 124.138C471.921 123.547 471.841 122.831 471.972 121.99C472.086 121.343 472.302 120.797 472.62 120.354C472.944 119.911 473.353 119.547 473.847 119.263C474.341 118.973 474.91 118.746 475.552 118.581C476.194 118.416 476.893 118.291 477.648 118.206C478.387 118.115 479.018 118.036 479.54 117.968C480.063 117.899 480.469 117.791 480.759 117.644C481.049 117.496 481.222 117.257 481.279 116.928L481.33 116.621C481.478 115.729 481.341 115.027 480.921 114.516C480.501 113.999 479.796 113.74 478.807 113.74C477.864 113.74 477.046 113.95 476.353 114.371C475.665 114.786 475.154 115.271 474.819 115.828L473.472 115.308C473.881 114.593 474.384 114.021 474.981 113.595C475.577 113.164 476.216 112.854 476.898 112.666C477.58 112.473 478.253 112.377 478.918 112.377C479.418 112.377 479.927 112.442 480.444 112.573C480.961 112.703 481.424 112.931 481.833 113.254C482.248 113.573 482.552 114.019 482.745 114.593C482.944 115.161 482.972 115.882 482.83 116.757L481.347 125.646H479.83L480.18 123.575H480.086C479.847 123.962 479.518 124.337 479.097 124.7C478.682 125.064 478.185 125.362 477.606 125.595C477.026 125.828 476.373 125.945 475.645 125.945ZM476.029 124.556C476.836 124.556 477.566 124.377 478.219 124.019C478.878 123.661 479.418 123.186 479.839 122.595C480.265 121.999 480.537 121.343 480.657 120.627L480.972 118.735C480.847 118.843 480.643 118.939 480.358 119.024C480.08 119.11 479.765 119.186 479.412 119.254C479.066 119.317 478.716 119.371 478.364 119.416C478.018 119.462 477.711 119.502 477.444 119.536C476.688 119.627 476.029 119.769 475.466 119.962C474.91 120.155 474.464 120.422 474.128 120.763C473.793 121.098 473.583 121.53 473.498 122.058C473.367 122.854 473.54 123.47 474.018 123.908C474.501 124.34 475.171 124.556 476.029 124.556Z" fill="#D5D5D5"/>
<defs>
<linearGradient id="paint0_linear_1127_2793" x1="-38.0927" y1="175.593" x2="111.652" y2="-0.678069" gradientUnits="userSpaceOnUse">
<stop stop-color="#C1272D"/>
<stop offset="0.08" stop-color="#C42E2B"/>
<stop offset="0.21" stop-color="#CF4329"/>
<stop offset="0.37" stop-color="#E06524"/>
<stop offset="0.54" stop-color="#F7931E"/>
<stop offset="1" stop-color="#FBB03B"/>
</linearGradient>
<linearGradient id="paint1_linear_1127_2793" x1="7.92002" y1="81.4711" x2="113.941" y2="42.0118" gradientUnits="userSpaceOnUse">
<stop stop-color="#A1392A"/>
<stop offset="0.12" stop-color="#A8342A"/>
<stop offset="0.31" stop-color="#BD292C"/>
<stop offset="0.34" stop-color="#C1272D"/>
<stop offset="1" stop-color="#ED1C24"/>
</linearGradient>
</defs>
</svg>
