<svg xmlns="http://www.w3.org/2000/svg" viewBox="0 0 395.74 72.48">
  <g id="Layer_2" data-name="Layer 2">
    <g id="logos">
      <g>
        <g>
          <path d="M100.34,53.32l-10.5.08V19.76h10.42a16.19,16.19,0,0,1,11.86,4.89,16.21,16.21,0,0,1,5,11.83,15.88,15.88,0,0,1-4.83,11.89A16.39,16.39,0,0,1,100.34,53.32Zm11-16.8a10.88,10.88,0,0,0-3.26-7.85,10.67,10.67,0,0,0-7.84-3.23h-4.7v22.2h4.74a10.89,10.89,0,0,0,7.86-3.27A10.51,10.51,0,0,0,111.36,36.52Z" style="fill: #fff"/>
          <path d="M120,19.72h15.63v4.92h-9.87v6.65h9.87v6h-9.87v11.1h9.87v4.91H120Z" style="fill: #fff"/>
          <path d="M168.8,53.27l-3.21-17.15L156.43,54,147.58,35.9l-3.39,17.37h-7.12l8.69-33.44,10.69,21.88,11.09-21.82L176,53.27Z" style="fill: #fff"/>
          <path d="M194.56,53.82a17,17,0,0,1-17.07-17,17,17,0,0,1,17.07-17.06,16.37,16.37,0,0,1,12.07,5,16.44,16.44,0,0,1,5,12.08,17,17,0,0,1-17,17Zm11.31-17a11,11,0,0,0-3.3-8,10.86,10.86,0,0,0-8-3.33,11.28,11.28,0,0,0-11.35,11.38,11.33,11.33,0,1,0,22.66,0Z" style="fill: #fff"/>
          <path d="M250.34,39.15a11,11,0,0,1-8,3.28h-3.56V53.27H233V19.76l9.36,0a11.1,11.1,0,0,1,8.05,3.32,10.75,10.75,0,0,1,3.26,8A11,11,0,0,1,250.34,39.15Zm-4-12a5.61,5.61,0,0,0-4-1.65h-3.64V36.71h3.6a5.41,5.41,0,0,0,4-1.61,5.57,5.57,0,0,0,1.65-4A5.17,5.17,0,0,0,246.39,27.18Z" style="fill: #fff"/>
          <path d="M277.3,53.27h-5.72L271.53,48a5.45,5.45,0,0,0-1.61-4,5.35,5.35,0,0,0-4-1.63h-3.6V53.27h-5.72V19.76H266A11.27,11.27,0,0,1,277.3,31.1a10.84,10.84,0,0,1-3.82,8.47A10.81,10.81,0,0,1,277.3,48Zm-15-27.83V36.71h3.6a5.38,5.38,0,0,0,4-1.62,5.56,5.56,0,0,0,1.66-4,5.35,5.35,0,0,0-1.59-4,5.44,5.44,0,0,0-4-1.64Z" style="fill: #fff"/>
          <path d="M297.29,53.82a17,17,0,0,1-17.07-17,17.05,17.05,0,1,1,34.1,0,17,17,0,0,1-17,17Zm11.31-17a11,11,0,0,0-3.3-8,10.86,10.86,0,0,0-8-3.33,11.28,11.28,0,0,0-11.35,11.38,11.33,11.33,0,1,0,22.66,0Z" style="fill: #fff"/>
          <path d="M328.51,42A11.27,11.27,0,0,1,317.2,53.27V47.56A5.57,5.57,0,0,0,322.79,42V19.76h5.72Z" style="fill: #fff"/>
          <path d="M331.48,19.72h15.63v4.92h-9.87v6.65h9.87v6h-9.87v11.1h9.87v4.91H331.48Z" style="fill: #fff"/>
          <path d="M367.11,25.44a11.3,11.3,0,0,0-11.36,11.38,11.29,11.29,0,0,0,17,9.76v6.27a16.85,16.85,0,0,1-5.67,1,17,17,0,0,1-17.08-17,17,17,0,0,1,17.08-17.06,17.11,17.11,0,0,1,5.67,1V27A10.82,10.82,0,0,0,367.11,25.44Z" style="fill: #fff"/>
          <path d="M387.19,53.27h-5.81V24.68h-8.6V19.76h23v4.92h-8.55Z" style="fill: #fff"/>
        </g>
        <g>
          <path d="M36.24,0a36.24,36.24,0,0,0-2.62,72.39c.86.06,1.74.09,2.62.09A36.24,36.24,0,0,0,36.24,0ZM55.05,43.68A19.6,19.6,0,0,1,40.76,56.29a18.54,18.54,0,0,1-4.56.38c-6,0-12,0-18,0-.14-.42.18-.7.35-1,2.95-5.11,5.92-10.21,8.84-15.33a1.53,1.53,0,0,1,1.59-.9c1.89.06,3.77,0,5.89,0-2.15,3.75-4.22,7.38-6.38,11.18,1.76,0,3.36,0,5,0a28.74,28.74,0,0,0,6.14-.35A13.3,13.3,0,0,0,48.06,30.2a13,13,0,0,0-10.84-6.28c-2.56-.14-5.13,0-7.69-.06-1,0-.9.3-.51,1q2.57,4.43,5.08,8.86a3.48,3.48,0,0,1,.63,1.37H28.26c-.37,0-.5-.29-.65-.55Q23,26.59,18.44,18.67c-.37-.64-.19-.8.49-.8,6.34,0,12.69-.09,19,.08,8.58.22,16.51,7.37,17.89,15.89.06.4.15.79.23,1.19A19.7,19.7,0,0,1,55.05,43.68Z" style="fill: #c97dff"/>
          <path d="M70.22,48.86,57.11,35.76c-.3-.3-.53-.72-1-.73A19.63,19.63,0,0,1,40.76,56.29a18.54,18.54,0,0,1-4.56.38c-6,0-12,0-18,0,0,.46.41.68.69,1L33.62,72.39c.86.06,1.74.09,2.62.09A36.23,36.23,0,0,0,70.22,48.86Z" style="fill: #a969d6"/>
        </g>
      </g>
    </g>
  </g>
</svg>
