<svg xmlns="http://www.w3.org/2000/svg" viewBox="0 0 305.9 34.31">
  <g id="Layer_2" data-name="Layer 2">
    <g id="logos">
      <g>
        <path d="M10.51,33.59,0,33.68V0H10.42A16.19,16.19,0,0,1,22.28,4.93a16.21,16.21,0,0,1,5,11.82,15.85,15.85,0,0,1-4.83,11.89A16.31,16.31,0,0,1,10.51,33.59Zm11-16.79A10.82,10.82,0,0,0,18.26,9a10.63,10.63,0,0,0-7.84-3.23H5.72v22.2h4.74a10.89,10.89,0,0,0,7.86-3.27A10.51,10.51,0,0,0,21.52,16.8Z" style="fill: #47205d"/>
        <path d="M30.16,0H45.79V4.91H35.92v6.65h9.87v6H35.92v11.1h9.87v4.91H30.16Z" style="fill: #47205d"/>
        <path d="M79,33.55,75.75,16.39,66.6,34.31,57.74,16.18,54.35,33.55H47.24L55.93.11,66.61,22,77.71.17l8.41,33.38Z" style="fill: #47205d"/>
        <path d="M104.72,34.1a16.51,16.51,0,0,1-12.09-5,16.36,16.36,0,0,1-5-12.06A16.44,16.44,0,0,1,92.63,5,17.18,17.18,0,0,1,116.8,5a16.49,16.49,0,0,1,5,12.08,16.41,16.41,0,0,1-5,12A16.42,16.42,0,0,1,104.72,34.1Zm11.31-17a11,11,0,0,0-3.3-8A11.37,11.37,0,0,0,96.67,9a11,11,0,0,0-3.3,8.06,11.32,11.32,0,0,0,11.35,11.34,10.92,10.92,0,0,0,8-3.31A11,11,0,0,0,116,17.09Z" style="fill: #47205d"/>
        <path d="M160.5,19.42a11,11,0,0,1-8,3.29h-3.57V33.55h-5.72V0l9.36,0a11.15,11.15,0,0,1,8,3.33,10.75,10.75,0,0,1,3.26,8A11,11,0,0,1,160.5,19.42Zm-3.95-12a5.6,5.6,0,0,0-4-1.66h-3.64V17h3.6a5.41,5.41,0,0,0,4-1.61,5.59,5.59,0,0,0,1.65-4A5.15,5.15,0,0,0,156.55,7.46Z" style="fill: #47205d"/>
        <path d="M187.46,33.55h-5.72l0-5.25a5.51,5.51,0,0,0-1.61-4,5.42,5.42,0,0,0-4-1.63h-3.6V33.55h-5.72V0h9.37a10.86,10.86,0,0,1,8,3.3,11,11,0,0,1,3.29,8,10.81,10.81,0,0,1-3.82,8.46,10.84,10.84,0,0,1,3.82,8.47Zm-15-27.83V17h3.6a5.41,5.41,0,0,0,4-1.62,5.62,5.62,0,0,0,1.65-4,5.31,5.31,0,0,0-1.59-4,5.4,5.4,0,0,0-4-1.64Z" style="fill: #47205d"/>
        <path d="M207.45,34.1a16.51,16.51,0,0,1-12.09-5,16.36,16.36,0,0,1-5-12.06,16.44,16.44,0,0,1,5-12.08,17.18,17.18,0,0,1,24.17,0,16.49,16.49,0,0,1,4.95,12.08,16.41,16.41,0,0,1-5,12A16.42,16.42,0,0,1,207.45,34.1Zm11.31-17a11,11,0,0,0-3.3-8A11.37,11.37,0,0,0,199.4,9a11,11,0,0,0-3.3,8.06,10.92,10.92,0,0,0,3.33,8,11.36,11.36,0,0,0,16,0A11,11,0,0,0,218.76,17.09Z" style="fill: #47205d"/>
        <path d="M238.67,22.25a11.27,11.27,0,0,1-11.31,11.3V27.84a5.58,5.58,0,0,0,5.6-5.59V0h5.71Z" style="fill: #47205d"/>
        <path d="M241.64,0h15.63V4.91H247.4v6.65h9.87v6H247.4v11.1h9.87v4.91H241.64Z" style="fill: #47205d"/>
        <path d="M277.27,5.72a10.92,10.92,0,0,0-8,3.31,11,11,0,0,0-3.31,8.06,11.34,11.34,0,0,0,11.36,11.34,10.91,10.91,0,0,0,5.67-1.57v6.27a16.81,16.81,0,0,1-5.67,1,16.52,16.52,0,0,1-12.1-5,16.35,16.35,0,0,1-5-12.06,16.43,16.43,0,0,1,5-12.08,16.5,16.5,0,0,1,12.1-5,17.06,17.06,0,0,1,5.67,1V7.29A10.82,10.82,0,0,0,277.27,5.72Z" style="fill: #47205d"/>
        <path d="M297.35,33.55h-5.81V5h-8.6V0h23V5h-8.55Z" style="fill: #47205d"/>
      </g>
    </g>
  </g>
</svg>
