<svg xmlns="http://www.w3.org/2000/svg" viewBox="0 0 305.9 220.55">
  <g id="Layer_2" data-name="Layer 2">
    <g id="logos">
      <g>
        <g>
          <path d="M230.73,78.92a78.93,78.93,0,1,0-84.65,78.72c1.89.14,3.8.21,5.72.21a79,79,0,0,0,74-51.44h0A78.78,78.78,0,0,0,230.73,78.92Z" style="fill: #5e3875"/>
          <path d="M195,76.29a42.4,42.4,0,0,1-2.22,18.83c-5.54,14.59-16,23.6-31.11,27.47a40.17,40.17,0,0,1-9.93.83c-13.05.07-26.1.06-39.15.08-.3-.92.38-1.53.76-2.2,6.42-11.12,12.88-22.23,19.24-33.39A3.36,3.36,0,0,1,136,86c4.11.13,8.22,0,12.82,0-4.67,8.18-9.18,16.08-13.89,24.35,3.83,0,7.32,0,10.8,0,4.47-.07,8.93.25,13.37-.76a29,29,0,0,0,18.4-43.8c-5.39-8.64-13.48-13.14-23.61-13.68-5.56-.29-11.16,0-16.74-.12-2.1,0-2,.66-1.11,2.12,3.73,6.41,7.4,12.85,11.07,19.29a7.76,7.76,0,0,1,1.37,3H134.43c-.83,0-1.1-.64-1.42-1.2q-10-17.25-20-34.5c-.81-1.4-.42-1.73,1.07-1.72,13.8,0,27.62-.21,41.41.15,18.69.49,36,16.07,39,34.62C194.62,74.56,194.8,75.42,195,76.29Z" style="fill: #fefefe"/>
          <path d="M225.8,106.41q-14.28-14.25-28.56-28.53c-.66-.65-1.16-1.58-2.27-1.59a42.4,42.4,0,0,1-2.22,18.83c-5.54,14.59-16,23.6-31.11,27.47a40.17,40.17,0,0,1-9.93.83c-13.05.07-26.1.06-39.15.08.07,1,.89,1.48,1.5,2.09q16,16,32,32c1.89.14,3.8.21,5.72.21A79,79,0,0,0,225.8,106.41Z" style="fill: #47205d"/>
        </g>
        <g>
          <path d="M10.51,219.83,0,219.92V186.28H10.42a16.19,16.19,0,0,1,11.86,4.89,16.21,16.21,0,0,1,5,11.82,15.85,15.85,0,0,1-4.83,11.89A16.38,16.38,0,0,1,10.51,219.83Zm11-16.79a10.85,10.85,0,0,0-3.26-7.86A10.66,10.66,0,0,0,10.42,192H5.72v22.2h4.74a10.89,10.89,0,0,0,7.86-3.27A10.51,10.51,0,0,0,21.52,203Z" style="fill: #47205d"/>
          <path d="M30.16,186.24H45.79v4.91H35.92v6.65h9.87v6H35.92v11.1h9.87v4.91H30.16Z" style="fill: #47205d"/>
          <path d="M79,219.79l-3.22-17.16L66.6,220.55l-8.86-18.13-3.39,17.37H47.24l8.69-33.45,10.68,21.89,11.1-21.82,8.41,33.38Z" style="fill: #47205d"/>
          <path d="M104.72,220.34a17,17,0,1,1,12.06-5A16.51,16.51,0,0,1,104.72,220.34Zm11.31-17a11,11,0,0,0-3.3-8,11.37,11.37,0,0,0-16.06,0A11.36,11.36,0,1,0,116,203.33Z" style="fill: #47205d"/>
          <path d="M160.5,205.66a11,11,0,0,1-8,3.29h-3.57v10.84h-5.72V186.28l9.36,0a11.15,11.15,0,0,1,8,3.33,10.74,10.74,0,0,1,3.26,8A11,11,0,0,1,160.5,205.66Zm-3.95-12a5.63,5.63,0,0,0-4-1.65h-3.64v11.19h3.6a5.41,5.41,0,0,0,4-1.61,5.59,5.59,0,0,0,1.65-4A5.18,5.18,0,0,0,156.55,193.69Z" style="fill: #47205d"/>
          <path d="M187.46,219.79h-5.72l0-5.25a5.51,5.51,0,0,0-1.61-4,5.42,5.42,0,0,0-4-1.63h-3.6v10.89h-5.72V186.28h9.37a11.32,11.32,0,0,1,7.49,19.8,10.84,10.84,0,0,1,3.82,8.46ZM172.5,192v11.27h3.6a5.41,5.41,0,0,0,4-1.62,5.62,5.62,0,0,0,1.65-4,5.34,5.34,0,0,0-1.59-4,5.43,5.43,0,0,0-4-1.63Z" style="fill: #47205d"/>
          <path d="M207.45,220.34a17,17,0,1,1,12.06-5A16.51,16.51,0,0,1,207.45,220.34Zm11.31-17a11,11,0,0,0-3.3-8,11.37,11.37,0,0,0-16.06,0,11.36,11.36,0,1,0,19.36,8.06Z" style="fill: #47205d"/>
          <path d="M238.67,208.49a11.27,11.27,0,0,1-11.31,11.3v-5.71a5.58,5.58,0,0,0,5.6-5.59V186.28h5.71Z" style="fill: #47205d"/>
          <path d="M241.64,186.24h15.63v4.91H247.4v6.65h9.87v6H247.4v11.1h9.87v4.91H241.64Z" style="fill: #47205d"/>
          <path d="M277.27,192a11.35,11.35,0,1,0,5.67,21.14v6.27a16.81,16.81,0,0,1-5.67,1,16.52,16.52,0,0,1-12.1-5,17,17,0,0,1,12.1-29.11,16.81,16.81,0,0,1,5.67,1v6.27A10.91,10.91,0,0,0,277.27,192Z" style="fill: #47205d"/>
          <path d="M297.35,219.79h-5.81v-28.6h-8.6v-4.91h23v4.91h-8.55Z" style="fill: #47205d"/>
        </g>
      </g>
    </g>
  </g>
</svg>
