<svg xmlns="http://www.w3.org/2000/svg" viewBox="0 0 116.27 116.27">
  <g id="Layer_2" data-name="Layer 2">
    <g id="logos">
      <g>
        <path d="M58.14,0a58.14,58.14,0,0,0-4.22,116.12c1.39.1,2.8.15,4.22.15A58.14,58.14,0,0,0,58.14,0ZM88.3,70.07C84.22,80.82,76.5,87.45,65.38,90.3a29.62,29.62,0,0,1-7.31.61c-9.61,0-19.22,0-28.84.06-.22-.68.28-1.12.56-1.62C34.52,81.16,39.28,73,44,64.76a2.45,2.45,0,0,1,2.55-1.45c3,.09,6,0,9.44,0L45.73,81.27c2.82,0,5.39,0,8,0,3.29-.06,6.57.18,9.85-.57A21.34,21.34,0,0,0,77.09,48.44,20.76,20.76,0,0,0,59.7,38.37c-4.1-.22-8.22,0-12.33-.09-1.55,0-1.45.48-.82,1.56Q50.66,46.92,54.7,54a5.6,5.6,0,0,1,1,2.2H45.34c-.61,0-.81-.47-1.05-.88q-7.35-12.72-14.7-25.42c-.6-1-.31-1.27.78-1.27,10.17,0,20.35-.15,30.51.12,13.76.36,26.48,11.83,28.69,25.49.1.64.24,1.28.36,1.91A31.15,31.15,0,0,1,88.3,70.07Z" style="fill: #c97dff"/>
        <path d="M112.65,78.38l-21-21c-.49-.48-.85-1.17-1.68-1.18A31.15,31.15,0,0,1,88.3,70.07C84.22,80.82,76.5,87.45,65.38,90.3a29.62,29.62,0,0,1-7.31.61c-9.61,0-19.22,0-28.84.06.06.74.66,1.09,1.1,1.54q11.79,11.8,23.59,23.61c1.39.1,2.8.15,4.22.15A58.15,58.15,0,0,0,112.65,78.38Z" style="fill: #a969d6"/>
      </g>
    </g>
  </g>
</svg>
