<svg xmlns="http://www.w3.org/2000/svg" viewBox="0 0 305.9 220.55">
  <g id="Layer_2" data-name="Layer 2">
    <g id="logos">
      <g>
        <g>
          <path d="M10.51,219.83,0,219.92V186.28H10.42a16.19,16.19,0,0,1,11.86,4.89,16.21,16.21,0,0,1,5,11.82,15.85,15.85,0,0,1-4.83,11.89A16.38,16.38,0,0,1,10.51,219.83Zm11-16.79a10.85,10.85,0,0,0-3.26-7.86A10.66,10.66,0,0,0,10.42,192H5.72v22.2h4.74a10.89,10.89,0,0,0,7.86-3.27A10.51,10.51,0,0,0,21.52,203Z" style="fill: #fff"/>
          <path d="M30.16,186.24H45.79v4.91H35.92v6.65h9.87v6H35.92v11.1h9.87v4.91H30.16Z" style="fill: #fff"/>
          <path d="M79,219.79l-3.22-17.16L66.6,220.55l-8.86-18.13-3.39,17.37H47.24l8.69-33.45,10.68,21.89,11.1-21.82,8.41,33.38Z" style="fill: #fff"/>
          <path d="M104.72,220.34a17,17,0,1,1,12.06-5A16.51,16.51,0,0,1,104.72,220.34Zm11.31-17a11,11,0,0,0-3.3-8,11.37,11.37,0,0,0-16.06,0A11.36,11.36,0,1,0,116,203.33Z" style="fill: #fff"/>
          <path d="M160.5,205.66a11,11,0,0,1-8,3.29h-3.57v10.84h-5.72V186.28l9.36,0a11.15,11.15,0,0,1,8,3.33,10.74,10.74,0,0,1,3.26,8A11,11,0,0,1,160.5,205.66Zm-3.95-12a5.63,5.63,0,0,0-4-1.65h-3.64v11.19h3.6a5.41,5.41,0,0,0,4-1.61,5.59,5.59,0,0,0,1.65-4A5.18,5.18,0,0,0,156.55,193.69Z" style="fill: #fff"/>
          <path d="M187.46,219.79h-5.72l0-5.25a5.51,5.51,0,0,0-1.61-4,5.42,5.42,0,0,0-4-1.63h-3.6v10.89h-5.72V186.28h9.37a11.32,11.32,0,0,1,7.49,19.8,10.84,10.84,0,0,1,3.82,8.46ZM172.5,192v11.27h3.6a5.41,5.41,0,0,0,4-1.62,5.62,5.62,0,0,0,1.65-4,5.34,5.34,0,0,0-1.59-4,5.43,5.43,0,0,0-4-1.63Z" style="fill: #fff"/>
          <path d="M207.45,220.34a17,17,0,1,1,12.06-5A16.51,16.51,0,0,1,207.45,220.34Zm11.31-17a11,11,0,0,0-3.3-8,11.37,11.37,0,0,0-16.06,0,11.36,11.36,0,1,0,19.36,8.06Z" style="fill: #fff"/>
          <path d="M238.67,208.49a11.27,11.27,0,0,1-11.31,11.3v-5.71a5.58,5.58,0,0,0,5.6-5.59V186.28h5.71Z" style="fill: #fff"/>
          <path d="M241.64,186.24h15.63v4.91H247.4v6.65h9.87v6H247.4v11.1h9.87v4.91H241.64Z" style="fill: #fff"/>
          <path d="M277.27,192a11.35,11.35,0,1,0,5.67,21.14v6.27a16.81,16.81,0,0,1-5.67,1,16.52,16.52,0,0,1-12.1-5,17,17,0,0,1,12.1-29.11,16.81,16.81,0,0,1,5.67,1v6.27A10.91,10.91,0,0,0,277.27,192Z" style="fill: #fff"/>
          <path d="M297.35,219.79h-5.81v-28.6h-8.6v-4.91h23v4.91h-8.55Z" style="fill: #fff"/>
        </g>
        <g>
          <path d="M151.89,0a78.62,78.62,0,0,0-5.69,157c1.88.13,3.78.2,5.69.2A78.62,78.62,0,1,0,151.89,0Zm40.8,94.76c-5.53,14.53-15.95,23.51-31,27.36a39.8,39.8,0,0,1-9.88.82c-13,.08-26,.06-39,.08-.31-.92.37-1.51.76-2.18,6.39-11.09,12.82-22.15,19.16-33.26a3.34,3.34,0,0,1,3.45-2c4.09.12,8.19,0,12.77,0l-13.84,24.25c3.82,0,7.3,0,10.77,0,4.44-.07,8.89.25,13.32-.76a28.86,28.86,0,0,0,18.33-43.63C172.15,56.9,164.09,52.42,154,51.88c-5.55-.29-11.12,0-16.68-.12-2.1,0-2,.66-1.11,2.12q5.57,9.57,11,19.21a7.71,7.71,0,0,1,1.37,3h-14c-.82,0-1.09-.64-1.42-1.2q-9.93-17.19-19.89-34.37c-.8-1.39-.41-1.72,1.07-1.71,13.75,0,27.51-.2,41.25.15,18.62.49,35.82,16,38.8,34.48.14.87.33,1.72.5,2.58A42.42,42.42,0,0,1,192.69,94.76Z" style="fill: #c97dff"/>
          <path d="M225.61,106,197.16,77.58C196.51,76.93,196,76,194.9,76a42.42,42.42,0,0,1-2.21,18.77c-5.53,14.53-15.95,23.51-31,27.36a39.8,39.8,0,0,1-9.88.82c-13,.08-26,.06-39,.08.07,1,.88,1.48,1.49,2.08L146.2,157c1.88.13,3.78.2,5.69.2A78.64,78.64,0,0,0,225.61,106Z" style="fill: #a969d6"/>
        </g>
      </g>
    </g>
  </g>
</svg>
