<?xml version="1.0" encoding="UTF-8"?>
<svg id="Layer_1" data-name="Layer 1" xmlns="http://www.w3.org/2000/svg" xmlns:xlink="http://www.w3.org/1999/xlink" viewBox="0 0 267.03 67.75">
  <defs>
    <style>
      .cls-1 {
        fill: url(#linear-gradient);
      }

      .cls-1, .cls-2, .cls-3 {
        stroke-width: 0px;
      }

      .cls-2 {
        fill: #a1392a;
      }

      .cls-3 {
        fill: url(#linear-gradient-2);
      }
    </style>
    <linearGradient id="linear-gradient" x1="1665.39" y1="-307.88" x2="1779.04" y2="-360.16" gradientTransform="translate(-1401.11 1076.45) rotate(-24.95)" gradientUnits="userSpaceOnUse">
      <stop offset="0" stop-color="#c1272d"/>
      <stop offset=".1" stop-color="#c42e2b"/>
      <stop offset=".25" stop-color="#cf4329"/>
      <stop offset=".43" stop-color="#e06524"/>
      <stop offset=".63" stop-color="#f7931e"/>
      <stop offset="1" stop-color="#fbb03b"/>
    </linearGradient>
    <linearGradient id="linear-gradient-2" x1="3.87" y1="43.88" x2="61.22" y2="22.53" gradientUnits="userSpaceOnUse">
      <stop offset="0" stop-color="#a1392a"/>
      <stop offset=".23" stop-color="#a8342a"/>
      <stop offset=".58" stop-color="#bd292c"/>
      <stop offset=".63" stop-color="#c1272d"/>
      <stop offset="1" stop-color="#ed1c24"/>
    </linearGradient>
  </defs>
  <path class="cls-2" d="M128.32,36.89c.53-.17,1.03-.37,1.49-.61,1.58-.83,2.76-1.98,3.57-3.46.8-1.48,1.21-3.18,1.21-5.11s-.4-3.64-1.21-5.14c-.8-1.49-2-2.66-3.58-3.51-1.58-.85-3.55-1.27-5.9-1.27h-10.7v33.14h3.03v-30.42h7.59c1.75,0,3.2.3,4.34.89,1.15.59,2.01,1.43,2.58,2.52.57,1.08.86,2.35.86,3.79s-.28,2.7-.85,3.75c-.57,1.06-1.42,1.87-2.57,2.44-.85.42-1.83.69-2.99.79l.02,2.77s-.02,0,0,0l7.27,13.46h3.49l-7.65-14.03Z"/>
  <g>
    <path class="cls-2" d="M106.21,27.66h-3.04c-.23-1.13-.63-2.18-1.22-3.15-.59-.97-1.32-1.81-2.21-2.53-.88-.72-1.89-1.28-3.01-1.68-1.12-.4-2.34-.6-3.64-.6-2.09,0-4,.54-5.72,1.63-1.72,1.09-3.1,2.69-4.13,4.8-1.03,2.11-1.55,4.69-1.55,7.74s.52,5.66,1.55,7.77c1.03,2.1,2.41,3.7,4.13,4.78,1.72,1.08,3.63,1.63,5.72,1.63,1.3,0,2.52-.2,3.64-.6,1.12-.4,2.13-.96,3.01-1.67.89-.72,1.62-1.56,2.21-2.53.59-.97,1-2.02,1.22-3.16h3.04c-.27,1.52-.77,2.94-1.51,4.25-.74,1.31-1.68,2.46-2.82,3.44-1.14.98-2.45,1.75-3.92,2.3-1.48.55-3.1.83-4.87.83-2.78,0-5.25-.7-7.41-2.1-2.16-1.4-3.85-3.37-5.07-5.91-1.22-2.55-1.84-5.55-1.84-9.01s.61-6.47,1.84-9.01c1.22-2.55,2.91-4.52,5.07-5.91,2.16-1.4,4.63-2.1,7.41-2.1,1.77,0,3.39.27,4.87.82s2.79,1.31,3.92,2.3c1.14.99,2.08,2.13,2.82,3.44.74,1.3,1.24,2.72,1.51,4.26Z"/>
    <path class="cls-2" d="M169.25,33.88c0,3.45-.61,6.45-1.85,9.01-1.23,2.55-2.92,4.53-5.07,5.92-2.15,1.4-4.62,2.1-7.42,2.1s-5.27-.7-7.42-2.1c-2.15-1.4-3.84-3.37-5.06-5.92s-1.84-5.55-1.84-9.01.61-6.45,1.84-9,2.91-4.53,5.07-5.92c2.16-1.4,4.63-2.1,7.41-2.1s5.27.7,7.42,2.1c2.15,1.4,3.84,3.37,5.07,5.92,1.23,2.55,1.85,5.55,1.85,9ZM166.31,33.88c0-2.97-.5-5.51-1.49-7.63-.99-2.12-2.35-3.74-4.06-4.86-1.72-1.12-3.66-1.68-5.84-1.68s-4.11.56-5.82,1.68c-1.72,1.12-3.07,2.74-4.07,4.85-1,2.11-1.5,4.66-1.5,7.64s.5,5.51,1.49,7.62c.99,2.11,2.35,3.74,4.06,4.86,1.72,1.13,3.66,1.69,5.84,1.69s4.13-.56,5.85-1.68c1.72-1.12,3.08-2.74,4.07-4.86.99-2.12,1.48-4.66,1.47-7.63Z"/>
    <path class="cls-2" d="M202.37,17.31v33.14h-2.94l-19.58-27.75h-.26v27.75h-3.03V17.31h2.93l19.64,27.78h.26v-27.78h2.98Z"/>
    <path class="cls-2" d="M238.34,33.88c0,3.45-.61,6.45-1.85,9.01-1.23,2.55-2.92,4.53-5.07,5.92-2.15,1.4-4.62,2.1-7.42,2.1s-5.27-.7-7.42-2.1c-2.15-1.4-3.84-3.37-5.06-5.92s-1.84-5.55-1.84-9.01.61-6.45,1.84-9,2.91-4.53,5.07-5.92c2.16-1.4,4.63-2.1,7.41-2.1s5.27.7,7.42,2.1c2.15,1.4,3.84,3.37,5.07,5.92,1.23,2.55,1.85,5.55,1.85,9ZM235.4,33.88c0-2.97-.5-5.51-1.49-7.63s-2.35-3.74-4.06-4.86c-1.72-1.12-3.66-1.68-5.84-1.68s-4.11.56-5.82,1.68c-1.72,1.12-3.07,2.74-4.07,4.85-1,2.11-1.5,4.66-1.5,7.64s.5,5.51,1.49,7.62c.99,2.11,2.35,3.74,4.06,4.86,1.72,1.13,3.66,1.69,5.84,1.69s4.13-.56,5.85-1.68c1.72-1.12,3.08-2.74,4.07-4.86.99-2.12,1.48-4.66,1.47-7.63Z"/>
    <path class="cls-2" d="M263.65,25.59c-.18-1.85-1-3.31-2.44-4.4-1.45-1.09-3.26-1.63-5.45-1.63-1.54,0-2.9.26-4.07.79-1.17.53-2.09,1.26-2.75,2.19s-1,1.99-1,3.18c0,.87.19,1.64.57,2.3.38.66.89,1.22,1.53,1.69.64.47,1.35.87,2.14,1.21.78.33,1.57.61,2.37.84l3.49,1c1.06.29,2.11.66,3.17,1.12,1.06.45,2.03,1.02,2.91,1.71.88.69,1.59,1.52,2.12,2.51.53.99.8,2.17.8,3.55,0,1.77-.46,3.36-1.38,4.77-.92,1.41-2.23,2.53-3.95,3.36-1.72.83-3.77,1.24-6.16,1.24-2.25,0-4.21-.38-5.87-1.12-1.66-.75-2.97-1.79-3.92-3.12-.95-1.33-1.48-2.86-1.6-4.61h3.11c.11,1.31.54,2.41,1.29,3.32s1.74,1.59,2.95,2.06c1.21.47,2.56.7,4.04.7,1.65,0,3.12-.28,4.41-.83,1.29-.56,2.3-1.33,3.04-2.33s1.11-2.16,1.11-3.49c0-1.12-.29-2.06-.87-2.82-.58-.76-1.39-1.4-2.43-1.92-1.04-.52-2.25-.98-3.62-1.38l-3.96-1.16c-2.6-.78-4.62-1.85-6.05-3.22-1.43-1.37-2.15-3.12-2.15-5.24,0-1.78.48-3.35,1.43-4.7.95-1.35,2.25-2.41,3.88-3.17,1.63-.76,3.47-1.14,5.51-1.14s3.88.38,5.47,1.13c1.59.76,2.85,1.79,3.78,3.12.93,1.32,1.43,2.82,1.5,4.51h-2.93Z"/>
  </g>
  <path class="cls-1" d="M54.94,3.92C51.19.89,46.51-.45,41.76.14c-4.73.59-9.06,3.04-12.18,6.9-1.86,2.3-3.23,5.15-4.07,8.46-.53,2.09.26,4.25,2.02,5.49,1.77,1.25,4.07,1.3,5.88.1,1.09-.72,1.86-1.81,2.18-3.09.42-1.66,1.1-3.04,2.16-4.36,1.4-1.73,3.27-2.82,5.28-3.07,1.91-.23,3.78.31,5.29,1.52,1.5,1.21,2.43,2.94,2.6,4.85.18,2.02-.49,4.08-1.89,5.81-2.31,2.86-5.46,4.03-9.69,4.77h0s-1.46.21-1.46.21c-1,.15-2.13.29-3.55.45l-6.7.71c-8.46.9-17.2,1.83-23.37,9.47-6.47,8.01-5.47,19.19,2.28,25.45,5.45,4.4,12.56,5.03,18.56,2.24,2.54-1.18,4.88-2.98,6.8-5.36,1.86-2.3,3.23-5.15,4.07-8.46.53-2.09-.27-4.24-2.02-5.49-1.77-1.25-4.07-1.3-5.88-.1-1.09.72-1.86,1.81-2.18,3.09-.41,1.66-1.1,3.04-2.16,4.36-1.4,1.73-3.27,2.82-5.29,3.07-1.9.23-3.78-.31-5.29-1.52-1.5-1.21-2.43-2.94-2.6-4.85-.18-2.02.49-4.08,1.89-5.81,2.34-2.89,5.53-4.06,9.84-4.79h0s1.32-.19,1.32-.19c1.01-.15,2.14-.29,3.55-.45l6.7-.71c8.46-.9,17.2-1.83,23.38-9.47,6.47-8.01,5.47-19.19-2.28-25.45Z"/>
  <path class="cls-3" d="M47.38,26.82l-19.76,2.1c-8.46.9-17.2,1.83-23.38,9.47-2.25,2.79-3.67,6.08-4.11,9.52-.09.67,4.17-6.43,15.21-7.11l11.91-1.27h.04s6.55-.7,6.55-.7c5.32-.57,10.74-1.14,15.58-3.39,2.86-1.33,5.51-3.24,7.8-6.08,2.25-2.79,3.67-6.08,4.11-9.52.08-.67-2.72,5.41-13.96,6.97Z"/>
</svg>