<svg width="268" height="68" viewBox="0 0 268 68" fill="none" xmlns="http://www.w3.org/2000/svg">
<g clip-path="url(#clip0_194_4155)">
<path d="M128.32 36.89C128.85 36.72 129.35 36.52 129.81 36.28C131.39 35.45 132.57 34.3 133.38 32.82C134.18 31.34 134.59 29.64 134.59 27.71C134.59 25.78 134.19 24.07 133.38 22.57C132.58 21.08 131.38 19.91 129.8 19.06C128.22 18.21 126.25 17.79 123.9 17.79H113.2V50.93H116.23V20.51H123.82C125.57 20.51 127.02 20.81 128.16 21.4C129.31 21.99 130.17 22.83 130.74 23.92C131.31 25 131.6 26.27 131.6 27.71C131.6 29.15 131.32 30.41 130.75 31.46C130.18 32.52 129.33 33.33 128.18 33.9C127.33 34.32 126.35 34.59 125.19 34.69L125.21 37.46L132.48 50.92H135.97L128.32 36.89Z" fill="white"/>
<path d="M106.21 27.66H103.17C102.94 26.53 102.54 25.48 101.95 24.51C101.36 23.54 100.63 22.7 99.74 21.98C98.86 21.26 97.85 20.7 96.73 20.3C95.61 19.9 94.39 19.7 93.09 19.7C91 19.7 89.09 20.24 87.37 21.33C85.65 22.42 84.27 24.02 83.24 26.13C82.21 28.24 81.69 30.82 81.69 33.87C81.69 36.92 82.21 39.53 83.24 41.64C84.27 43.74 85.65 45.34 87.37 46.42C89.09 47.5 91 48.05 93.09 48.05C94.39 48.05 95.61 47.85 96.73 47.45C97.85 47.05 98.86 46.49 99.74 45.78C100.63 45.06 101.36 44.22 101.95 43.25C102.54 42.28 102.95 41.23 103.17 40.09H106.21C105.94 41.61 105.44 43.03 104.7 44.34C103.96 45.65 103.02 46.8 101.88 47.78C100.74 48.76 99.43 49.53 97.96 50.08C96.48 50.63 94.86 50.91 93.09 50.91C90.31 50.91 87.84 50.21 85.68 48.81C83.52 47.41 81.83 45.44 80.61 42.9C79.39 40.35 78.77 37.35 78.77 33.89C78.77 30.43 79.38 27.42 80.61 24.88C81.83 22.33 83.52 20.36 85.68 18.97C87.84 17.57 90.31 16.87 93.09 16.87C94.86 16.87 96.48 17.14 97.96 17.69C99.44 18.24 100.75 19 101.88 19.99C103.02 20.98 103.96 22.12 104.7 23.43C105.44 24.73 105.94 26.15 106.21 27.69V27.66Z" fill="white"/>
<path d="M169.25 33.88C169.25 37.33 168.64 40.33 167.4 42.89C166.17 45.44 164.48 47.42 162.33 48.81C160.18 50.21 157.71 50.91 154.91 50.91C152.11 50.91 149.64 50.21 147.49 48.81C145.34 47.41 143.65 45.44 142.43 42.89C141.21 40.34 140.59 37.34 140.59 33.88C140.59 30.42 141.2 27.43 142.43 24.88C143.66 22.33 145.34 20.35 147.5 18.96C149.66 17.56 152.13 16.86 154.91 16.86C157.69 16.86 160.18 17.56 162.33 18.96C164.48 20.36 166.17 22.33 167.4 24.88C168.63 27.43 169.25 30.43 169.25 33.88ZM166.31 33.88C166.31 30.91 165.81 28.37 164.82 26.25C163.83 24.13 162.47 22.51 160.76 21.39C159.04 20.27 157.1 19.71 154.92 19.71C152.74 19.71 150.81 20.27 149.1 21.39C147.38 22.51 146.03 24.13 145.03 26.24C144.03 28.35 143.53 30.9 143.53 33.88C143.53 36.86 144.03 39.39 145.02 41.5C146.01 43.61 147.37 45.24 149.08 46.36C150.8 47.49 152.74 48.05 154.92 48.05C157.1 48.05 159.05 47.49 160.77 46.37C162.49 45.25 163.85 43.63 164.84 41.51C165.83 39.39 166.32 36.85 166.31 33.88Z" fill="white"/>
<path d="M202.37 17.3099V50.4499H199.43L179.85 22.6999H179.59V50.4499H176.56V17.3099H179.49L199.13 45.0899H199.39V17.3099H202.37Z" fill="white"/>
<path d="M238.34 33.88C238.34 37.33 237.73 40.33 236.49 42.89C235.26 45.44 233.57 47.42 231.42 48.81C229.27 50.21 226.8 50.91 224 50.91C221.2 50.91 218.73 50.21 216.58 48.81C214.43 47.41 212.74 45.44 211.52 42.89C210.3 40.34 209.68 37.34 209.68 33.88C209.68 30.42 210.29 27.43 211.52 24.88C212.75 22.33 214.43 20.35 216.59 18.96C218.75 17.56 221.22 16.86 224 16.86C226.78 16.86 229.27 17.56 231.42 18.96C233.57 20.36 235.26 22.33 236.49 24.88C237.72 27.43 238.34 30.43 238.34 33.88ZM235.4 33.88C235.4 30.91 234.9 28.37 233.91 26.25C232.92 24.13 231.56 22.51 229.85 21.39C228.13 20.27 226.19 19.71 224.01 19.71C221.83 19.71 219.9 20.27 218.19 21.39C216.47 22.51 215.12 24.13 214.12 26.24C213.12 28.35 212.62 30.9 212.62 33.88C212.62 36.86 213.12 39.39 214.11 41.5C215.1 43.61 216.46 45.24 218.17 46.36C219.89 47.49 221.83 48.05 224.01 48.05C226.19 48.05 228.14 47.49 229.86 46.37C231.58 45.25 232.94 43.63 233.93 41.51C234.92 39.39 235.41 36.85 235.4 33.88Z" fill="white"/>
<path d="M263.65 25.59C263.47 23.74 262.65 22.28 261.21 21.19C259.76 20.1 257.95 19.56 255.76 19.56C254.22 19.56 252.86 19.82 251.69 20.35C250.52 20.88 249.6 21.61 248.94 22.54C248.28 23.47 247.94 24.53 247.94 25.72C247.94 26.59 248.13 27.36 248.51 28.02C248.89 28.68 249.4 29.24 250.04 29.71C250.68 30.18 251.39 30.58 252.18 30.92C252.96 31.25 253.75 31.53 254.55 31.76L258.04 32.76C259.1 33.05 260.15 33.42 261.21 33.88C262.27 34.33 263.24 34.9 264.12 35.59C265 36.28 265.71 37.11 266.24 38.1C266.77 39.09 267.04 40.27 267.04 41.65C267.04 43.42 266.58 45.01 265.66 46.42C264.74 47.83 263.43 48.95 261.71 49.78C259.99 50.61 257.94 51.02 255.55 51.02C253.3 51.02 251.34 50.64 249.68 49.9C248.02 49.15 246.71 48.11 245.76 46.78C244.81 45.45 244.28 43.92 244.16 42.17H247.27C247.38 43.48 247.81 44.58 248.56 45.49C249.31 46.4 250.3 47.08 251.51 47.55C252.72 48.02 254.07 48.25 255.55 48.25C257.2 48.25 258.67 47.97 259.96 47.42C261.25 46.86 262.26 46.09 263 45.09C263.74 44.09 264.11 42.93 264.11 41.6C264.11 40.48 263.82 39.54 263.24 38.78C262.66 38.02 261.85 37.38 260.81 36.86C259.77 36.34 258.56 35.88 257.19 35.48L253.23 34.32C250.63 33.54 248.61 32.47 247.18 31.1C245.75 29.73 245.03 27.98 245.03 25.86C245.03 24.08 245.51 22.51 246.46 21.16C247.41 19.81 248.71 18.75 250.34 17.99C251.97 17.23 253.81 16.85 255.85 16.85C257.89 16.85 259.73 17.23 261.32 17.98C262.91 18.74 264.17 19.77 265.1 21.1C266.03 22.42 266.53 23.92 266.6 25.61H263.67L263.65 25.59Z" fill="white"/>
<path d="M54.94 3.92005C51.19 0.890048 46.51 -0.449952 41.76 0.140048C37.03 0.730048 32.7 3.18005 29.58 7.04005C27.72 9.34005 26.35 12.19 25.51 15.5C24.98 17.59 25.77 19.75 27.53 20.99C29.3 22.24 31.6 22.29 33.41 21.09C34.5 20.37 35.27 19.28 35.59 18C36.01 16.34 36.69 14.96 37.75 13.64C39.15 11.91 41.02 10.82 43.03 10.57C44.94 10.34 46.81 10.88 48.32 12.09C49.82 13.3 50.75 15.03 50.92 16.94C51.1 18.96 50.43 21.02 49.03 22.75C46.72 25.61 43.57 26.78 39.34 27.52L37.88 27.73C36.88 27.88 35.75 28.02 34.33 28.18L27.63 28.89C19.17 29.79 10.43 30.7201 4.25999 38.3601C-2.21 46.3701 -1.21001 57.5501 6.53999 63.8101C11.99 68.2101 19.1 68.84 25.1 66.05C27.64 64.87 29.98 63.07 31.9 60.69C33.76 58.39 35.13 55.54 35.97 52.23C36.5 50.14 35.7 47.9901 33.95 46.7401C32.18 45.4901 29.88 45.44 28.07 46.64C26.98 47.36 26.21 48.45 25.89 49.73C25.48 51.39 24.79 52.77 23.73 54.09C22.33 55.82 20.46 56.91 18.44 57.16C16.54 57.39 14.66 56.85 13.15 55.64C11.65 54.43 10.72 52.7001 10.55 50.7901C10.37 48.7701 11.04 46.71 12.44 44.98C14.78 42.09 17.97 40.92 22.28 40.19L23.6 40C24.61 39.85 25.74 39.71 27.15 39.55L33.85 38.84C42.31 37.94 51.05 37.01 57.23 29.37C63.7 21.36 62.7 10.18 54.95 3.92005H54.94Z" fill="white"/>
<path d="M47.3801 26.82L27.6201 28.92C19.1601 29.82 10.4201 30.75 4.24006 38.39C1.99006 41.18 0.570056 44.47 0.130056 47.91C0.040056 48.58 4.30006 41.48 15.3401 40.8L27.2501 39.53H27.2901L33.8401 38.83C39.1601 38.26 44.5801 37.69 49.4201 35.44C52.2801 34.11 54.9301 32.2 57.2201 29.36C59.4701 26.57 60.8901 23.28 61.3301 19.84C61.4101 19.17 58.6101 25.25 47.3701 26.81L47.3801 26.82Z" fill="white"/>
</g>
<defs>
<clipPath id="clip0_194_4155">
<rect width="267.03" height="67.75" fill="white"/>
</clipPath>
</defs>
</svg>
