<svg xmlns="http://www.w3.org/2000/svg" viewBox="0 0 391.55 76.22">
  <g id="Layer_2" data-name="Layer 2">
    <g id="Layer_1-2" data-name="Layer 1">
      <g>
        <rect width="76.45" height="18.52" style="fill: #fff"/>
        <polygon points="134.9 56.17 158.5 56.17 160.37 49.58 146.01 49.58 147.28 45.16 158.95 45.16 160.83 38.57 149.16 38.57 150.33 34.51 164.08 34.51 165.96 27.96 142.92 27.96 134.9 56.17" style="fill: #fff"/>
        <path d="M125.16,28H111.57L103.5,56.18h9.29l2.48-8.78h4.67c.51,0,1,0,1.52,0h0c7.21-.46,11.42-4.17,13-9.9S133.28,28,125.16,28Zm.51,9.54a4.27,4.27,0,0,1-4.21,3.3H117.2l1.73-6.28h2.63C123.54,34.51,126.38,34.86,125.67,37.5Z" style="fill: #fff"/>
        <path d="M30,35.58a2.24,2.24,0,0,0-2.41-2.15H21.22l-1.47,5.22h6.82A3.14,3.14,0,0,0,30,35.58Z" style="fill: #fff"/>
        <path d="M16.45,50.17h6.12c3.45,0,4-1.77,4.32-2.34a3.17,3.17,0,0,0,.05-2.39c-.37-.63-.52-1.36-3.22-1.36H18.21Z" style="fill: #fff"/>
        <path d="M61.57,36c0-.56-.11-2.5-3-2.5h-6c0,.16-1.75,6.32-1.75,6.32H57C60.43,39.78,61.57,37.25,61.57,36Z" style="fill: #fff"/>
        <path d="M68.11,32.25a8.18,8.18,0,0,1-.75,6.89,10.43,10.43,0,0,1-5.46,4.34c1.28,0,2.79,1,2.89,3.29,0,.65.38,9.49.38,9.49H57.48l-.27-7.88c-.09-.92.23-3.06-3.21-3.06H49.27L46.24,56H38l8.18-28.26H28.33c2.44,0,5.77.64,7.49,2.74a7,7,0,0,1,.6,7.43,9,9,0,0,1-3.74,3.69,6,6,0,0,1,2.64,3.14c.88,2.73-.17,6.64-2.13,8.28C31.73,54.29,30.47,56,23.24,56H6.55l8.15-28.2H0V76.22H76.45V27.78H60.57C63.12,27.84,66.71,28.49,68.11,32.25Z" style="fill: #fff"/>
        <path d="M250.53,27.2a19.64,19.64,0,0,0-19,14.62c-2.69,9.64,1.67,15.12,10.5,15.12a19.86,19.86,0,0,0,4.26-.46,20.17,20.17,0,0,0,14.87-14.56C263.32,34.46,260.63,27.2,250.53,27.2Zm1.37,14.72c-1,3.7-2.84,6.64-5.58,7.71A6.83,6.83,0,0,1,244,50c-4.42,0-4.26-4.52-3.2-8.12.81-2.9,2.59-6.24,5.48-7.41a6,6,0,0,1,2.18-.41C252.61,34,253,38.06,251.9,41.92Z" style="fill: #fff"/>
        <polygon points="196.65 31.67 197.72 27.96 196.65 27.96 171.79 27.96 169.71 35.37 178.03 35.37 172.09 56.17 181.33 56.17 187.26 35.37 195.59 35.37 196.65 31.67" style="fill: #fff"/>
        <path d="M327.6,36.54a2.55,2.55,0,0,0,.21-.56c.6-2.13.6-3.86-.21-5.12-1.21-2-4.31-2.9-10-2.9H304.21l-8,28.22h9.23l2.84-9.85h2.79a5.86,5.86,0,0,1,3.4.66c1,.71.81,2,.15,4.26-.05.21-.1.36-.15.51a16.75,16.75,0,0,0-.76,4.42h9.39l.2-.87c-1.06,0-.61-1.22.46-4.92,1.62-5.68,0-6.39-2.64-7.51A9.19,9.19,0,0,0,327.6,36.54Zm-8.77.91c-.51,1.78-2,2.54-4.37,2.69H310l1.62-5.63h4.31C318.06,34.51,319.38,35.47,318.83,37.45Z" style="fill: #fff"/>
        <path d="M391.43,36.13c.71-4.92-1.72-8.93-9.54-8.93-7.1,0-13.14,3-14.81,9-3.1,10.76,14,7.82,12.78,12.13-.35,1.32-2.13,2.08-4.41,2.08a4.16,4.16,0,0,1-2.44-.71,2.33,2.33,0,0,1-.91-2.23h-8.88c-1.22,5.07,2.38,9.44,9.84,9.44,7.77,0,14.16-3.2,16-9.75C392,36.94,375,39.53,376.21,35.32c.25-1,1.32-1.62,3.4-1.62a4.23,4.23,0,0,1,2.23.51,1.76,1.76,0,0,1,.76,1.92Z" style="fill: #fff"/>
        <path d="M345.21,28l-.61.92-17,26.43-.55.87h9.08l2.13-3.71h9.23v3.71h9.24L354.65,28Zm-.61,18.62h-2.89l2.89-5.17,2.84-5,.1,10.14Z" style="fill: #fff"/>
        <path d="M216.89,28H203.6l-6.95,24.51-1.06,3.71h9.28l2.74-9.85h2.79a5.86,5.86,0,0,1,3.4.66c1,.71.81,2,.15,4.26,0,.21-.1.36-.15.51a19.34,19.34,0,0,0-.76,4.42h9.39l.25-.87c-1.12,0-.66-1.22.4-4.92,1.63-5.68,0-6.39-2.63-7.51a9.48,9.48,0,0,0,6.69-6.9C228.67,30.5,226.33,28,216.89,28Zm1.27,9.49c-.5,1.78-2,2.54-4.36,2.69h-4.46L211,34.51h4.31C217.4,34.51,218.72,35.47,218.16,37.45Z" style="fill: #fff"/>
        <path d="M285.34,28H271.79l-8,28.22h13.8c.61,0,1.21,0,1.82-.06,6.4-.35,11.12-2.63,12.74-8.42.86-3.09,0-5.73-2.84-6.49a10.78,10.78,0,0,0,5.43-6.14C296.3,29.44,291.68,28,285.34,28Zm-1.62,19c-.56,2-2.24,2.54-4.32,2.59h-4.46l1.47-5.18h3C282.3,44.4,284.43,44.56,283.72,47Zm1.87-10.2c-.45,1.63-2,2.44-3.9,2.44h-3.81l1.32-4.72h3.25C284.43,34.51,286.2,34.56,285.59,36.79Z" style="fill: #fff"/>
      </g>
    </g>
  </g>
</svg>
