<svg xmlns="http://www.w3.org/2000/svg" viewBox="0 0 394.13 72.13">
  <g id="Layer_2" data-name="Layer 2">
    <g id="logos">
      <g>
        <g>
          <path d="M98.73,53.45l-10.5.09V19.9H98.65a16.19,16.19,0,0,1,11.86,4.89,16.21,16.21,0,0,1,5,11.82,15.85,15.85,0,0,1-4.83,11.89A16.41,16.41,0,0,1,98.73,53.45Zm11-16.8a10.88,10.88,0,0,0-3.26-7.85,10.66,10.66,0,0,0-7.84-3.22H94V47.77h4.74a10.84,10.84,0,0,0,7.86-3.26A10.52,10.52,0,0,0,109.75,36.65Z" style="fill: #47205d"/>
          <path d="M118.39,19.86H134v4.91h-9.87v6.65H134v6h-9.87V48.5H134v4.91H118.39Z" style="fill: #47205d"/>
          <path d="M167.19,53.41,164,36.25l-9.15,17.92L146,36l-3.39,17.37h-7.12L144.15,20l10.69,21.89L165.93,20l8.42,33.38Z" style="fill: #47205d"/>
          <path d="M193,54a17,17,0,0,1-17.07-17A17.05,17.05,0,1,1,210,37a17,17,0,0,1-17,17Zm11.31-17a11,11,0,0,0-3.3-8,11.37,11.37,0,0,0-16.06,0A11,11,0,0,0,181.6,37a11.33,11.33,0,1,0,22.66,0Z" style="fill: #47205d"/>
          <path d="M248.73,39.28a11,11,0,0,1-8,3.28h-3.56V53.41h-5.72V19.9l9.36,0a11.15,11.15,0,0,1,8.05,3.33,10.74,10.74,0,0,1,3.26,8A11,11,0,0,1,248.73,39.28Zm-3.95-12a5.65,5.65,0,0,0-4-1.65h-3.64V36.85h3.6a5.43,5.43,0,0,0,4-1.61,5.59,5.59,0,0,0,1.65-4A5.18,5.18,0,0,0,244.78,27.31Z" style="fill: #47205d"/>
          <path d="M275.69,53.41H270l-.05-5.25a5.46,5.46,0,0,0-1.61-4,5.39,5.39,0,0,0-4-1.63h-3.6V53.41H255V19.9h9.37a11.25,11.25,0,0,1,11.31,11.34,10.84,10.84,0,0,1-3.82,8.46,10.84,10.84,0,0,1,3.82,8.46Zm-15-27.83V36.85h3.6a5.38,5.38,0,0,0,4-1.62,5.58,5.58,0,0,0,1.66-4,5.37,5.37,0,0,0-1.59-4,5.43,5.43,0,0,0-4-1.63Z" style="fill: #47205d"/>
          <path d="M295.68,54a17,17,0,0,1-17.07-17,17.05,17.05,0,1,1,34.1,0,17,17,0,0,1-17,17ZM307,37a11,11,0,0,0-3.3-8,11.37,11.37,0,0,0-16.06,0,11,11,0,0,0-3.3,8.06A11.33,11.33,0,1,0,307,37Z" style="fill: #47205d"/>
          <path d="M326.9,42.11a11.27,11.27,0,0,1-11.31,11.3V47.7a5.57,5.57,0,0,0,5.59-5.59V19.9h5.72Z" style="fill: #47205d"/>
          <path d="M329.87,19.86H345.5v4.91h-9.87v6.65h9.87v6h-9.87V48.5h9.87v4.91H329.87Z" style="fill: #47205d"/>
          <path d="M365.5,25.58A11.3,11.3,0,0,0,354.14,37a11.3,11.3,0,0,0,17,9.77V53a16.85,16.85,0,0,1-5.67,1,17,17,0,0,1-17.08-17A17,17,0,0,1,365.5,19.9a16.85,16.85,0,0,1,5.67,1v6.27A10.91,10.91,0,0,0,365.5,25.58Z" style="fill: #47205d"/>
          <path d="M385.58,53.41h-5.81V24.81h-8.6V19.9h23v4.91h-8.55Z" style="fill: #47205d"/>
        </g>
        <g>
          <path d="M72.13,36.07A36.07,36.07,0,1,0,33.45,72c.87.06,1.74.09,2.62.09a36.07,36.07,0,0,0,33.81-23.5h0A35.9,35.9,0,0,0,72.13,36.07Z" style="fill: #5e3875"/>
          <path d="M55.79,34.86a19.35,19.35,0,0,1-1,8.61C52.25,50.14,47.46,54.25,40.56,56A18.3,18.3,0,0,1,36,56.4c-6,0-11.93,0-17.89,0-.14-.43.17-.7.34-1,2.94-5.08,5.89-10.16,8.8-15.26a1.52,1.52,0,0,1,1.58-.89c1.88,0,3.75,0,5.86,0L28.37,50.42c1.75,0,3.34,0,4.94,0a29.81,29.81,0,0,0,6.11-.35,13.24,13.24,0,0,0,8.4-20A12.88,12.88,0,0,0,37,23.8c-2.55-.13-5.1,0-7.65-.05-1,0-.9.3-.51,1q2.55,4.39,5.06,8.82a3.57,3.57,0,0,1,.62,1.36H28.13c-.38,0-.5-.29-.65-.55q-4.56-7.88-9.13-15.76c-.37-.64-.19-.79.49-.79,6.31,0,12.62-.09,18.93.07,8.54.22,16.43,7.34,17.8,15.82C55.63,34.07,55.72,34.47,55.79,34.86Z" style="fill: #fefefe"/>
          <path d="M69.88,48.63l-13-13c-.3-.3-.53-.72-1-.73a19.35,19.35,0,0,1-1,8.61C52.25,50.14,47.46,54.25,40.56,56A18.3,18.3,0,0,1,36,56.4c-6,0-11.93,0-17.89,0,0,.45.4.67.68,1Q26.13,64.71,33.45,72c.87.06,1.74.09,2.62.09A36.07,36.07,0,0,0,69.88,48.63Z" style="fill: #47205d"/>
        </g>
      </g>
    </g>
  </g>
</svg>
