<?xml version="1.0" encoding="utf-8"?>
<!-- Generator: Adobe Illustrator 24.2.0, SVG Export Plug-In . SVG Version: 6.00 Build 0)  -->
<svg version="1.1" id="Layer_1" xmlns="http://www.w3.org/2000/svg" xmlns:xlink="http://www.w3.org/1999/xlink" x="0px" y="0px"
	 viewBox="0 0 86 86" style="enable-background:new 0 0 86 86;" xml:space="preserve">
<style type="text/css">
	.st0{fill:url(#SVGID_1_);}
	.st1{clip-path:url(#SVGID_3_);fill:#1B83C6;}
	.st2{fill:#FFFFFF;}
</style>
<linearGradient id="SVGID_1_" gradientUnits="userSpaceOnUse" x1="39.1462" y1="762.1481" x2="47.1462" y2="838.6481" gradientTransform="matrix(1 0 0 1 0 -756)">
	<stop  offset="0" style="stop-color:#ECEEF2"/>
	<stop  offset="1" style="stop-color:#D5D7DB"/>
</linearGradient>
<path class="st0" d="M0,32c0-11.2,0-16.8,2.2-21.1c1.9-3.8,5-6.8,8.7-8.7C15.2,0,20.8,0,32,0h22c11.2,0,16.8,0,21.1,2.2
	c3.8,1.9,6.8,5,8.7,8.7C86,15.2,86,20.8,86,32v22c0,11.2,0,16.8-2.2,21.1c-1.9,3.8-5,6.8-8.7,8.7C70.8,86,65.2,86,54,86H32
	c-11.2,0-16.8,0-21.1-2.2c-3.8-1.9-6.8-5-8.7-8.7C0,70.8,0,65.2,0,54V32z"/>
<g>
	<g>
		<defs>
			<path id="SVGID_2_" d="M0,32c0-11.2,0-16.8,2.2-21.1c1.9-3.8,5-6.8,8.7-8.7C15.2,0,20.8,0,32,0h22c11.2,0,16.8,0,21.1,2.2
				c3.8,1.9,6.8,5,8.7,8.7C86,15.2,86,20.8,86,32v22c0,11.2,0,16.8-2.2,21.1c-1.9,3.8-5,6.8-8.7,8.7C70.8,86,65.2,86,54,86H32
				c-11.2,0-16.8,0-21.1-2.2c-3.8-1.9-6.8-5-8.7-8.7C0,70.8,0,65.2,0,54V32z"/>
		</defs>
		<clipPath id="SVGID_3_">
			<use xlink:href="#SVGID_2_"  style="overflow:visible;"/>
		</clipPath>
		<rect x="0.1" y="0" class="st1" width="85.9" height="21.3"/>
	</g>
</g>
<g>
	<path class="st2" d="M12.9,17.9c-0.1,0-0.2-0.1-0.2-0.2L12.3,16h-2.1l-0.3,1.8c0,0.1-0.1,0.2-0.2,0.2H8.4c-0.1,0-0.2-0.1-0.2-0.2
		l2-9.2c0-0.1,0.1-0.2,0.2-0.2h1.7c0.1,0,0.2,0,0.2,0.2l2,9.2c0,0.1,0,0.2-0.2,0.2H12.9z M11.3,10.4l-0.8,4.2H12L11.3,10.4z"/>
	<path class="st2" d="M19.9,11.3c0,0.1-0.1,0.2-0.2,0.2h-1.2c-0.1,0-0.2-0.1-0.2-0.2v-1c0-0.3-0.2-0.5-0.5-0.5h-0.6
		c-0.3,0-0.5,0.2-0.5,0.5v5.5c0,0.3,0.2,0.5,0.5,0.5h0.6c0.3,0,0.5-0.2,0.5-0.5v-1c0-0.1,0.1-0.2,0.2-0.2h1.2c0.1,0,0.2,0.1,0.2,0.2
		v1.3c0,1.1-0.6,1.7-1.7,1.7h-1.3c-1.1,0-1.7-0.6-1.7-1.7V10c0-1.1,0.6-1.7,1.7-1.7h1.3c1.1,0,1.7,0.6,1.7,1.7V11.3z"/>
	<path class="st2" d="M25.5,17.9c-0.1,0-0.2-0.1-0.2-0.2L25,16h-2.1l-0.3,1.8c0,0.1-0.1,0.2-0.2,0.2h-1.3c-0.1,0-0.2-0.1-0.2-0.2
		l2-9.2c0-0.1,0.1-0.2,0.2-0.2h1.7c0.1,0,0.2,0,0.2,0.2l2,9.2c0,0.1,0,0.2-0.2,0.2H25.5z M23.9,10.4l-0.8,4.2h1.5L23.9,10.4z"/>
	<path class="st2" d="M32.9,12.2c0,0.4-0.3,0.8-0.8,0.9v0c0.4,0.1,0.8,0.4,0.8,0.9v2.2c0,1.1-0.6,1.7-1.7,1.7h-2.9
		c-0.1,0-0.2-0.1-0.2-0.2V8.5c0-0.1,0.1-0.2,0.2-0.2h2.9c1.1,0,1.7,0.6,1.7,1.7V12.2z M31.3,10.4c0-0.3-0.2-0.5-0.5-0.5h-1.1v2.4
		h1.1c0.3,0,0.5-0.2,0.5-0.5V10.4z M31.3,14.4c0-0.3-0.2-0.5-0.5-0.5h-1.1v2.4h1.1c0.3,0,0.5-0.2,0.5-0.5V14.4z"/>
	<path class="st2" d="M38.3,17.9c-0.1,0-0.2-0.1-0.2-0.2L37.8,16h-2.1l-0.3,1.8c0,0.1-0.1,0.2-0.2,0.2h-1.3c-0.1,0-0.2-0.1-0.2-0.2
		l2-9.2c0-0.1,0.1-0.2,0.2-0.2h1.7c0.1,0,0.2,0,0.2,0.2l2,9.2c0,0.1,0,0.2-0.2,0.2H38.3z M36.7,10.4L36,14.6h1.5L36.7,10.4z"/>
	<path class="st2" d="M47.2,8.3c0.2,0,0.2,0.1,0.2,0.2v9.1c0,0.2-0.1,0.2-0.2,0.2h-1.1c-0.2,0-0.2-0.1-0.2-0.2v-5.4h-0.1l-1.2,5.4
		c0,0.1-0.1,0.2-0.3,0.2h-0.6c-0.1,0-0.2-0.1-0.3-0.2l-1.2-5.4h-0.1v5.4c0,0.2-0.1,0.2-0.2,0.2h-1.1c-0.2,0-0.2-0.1-0.2-0.2V8.6
		c0-0.2,0.1-0.2,0.2-0.2h1.6c0.1,0,0.2,0.1,0.3,0.2l1.3,6l1.3-6c0-0.1,0.1-0.2,0.3-0.2H47.2z"/>
	<path class="st2" d="M53.4,9.7c0,0.1,0,0.2-0.2,0.2h-3v2.4h2.3c0.1,0,0.2,0.1,0.2,0.2v1.2c0,0.1-0.1,0.2-0.2,0.2h-2.3v2.4h3
		c0.1,0,0.2,0.1,0.2,0.2v1.2c0,0.1,0,0.2-0.2,0.2h-4.4c-0.1,0-0.2-0.1-0.2-0.2V8.5c0-0.1,0.1-0.2,0.2-0.2h4.4c0.1,0,0.2,0.1,0.2,0.2
		V9.7z"/>
	<path class="st2" d="M59.6,8.3c0.1,0,0.2,0.1,0.2,0.2v9.2c0,0.1-0.1,0.2-0.2,0.2h-1.2c-0.1,0-0.2,0-0.2-0.2l-1.8-5.1h-0.1v5.1
		c0,0.1-0.1,0.2-0.2,0.2h-1.2c-0.1,0-0.2-0.1-0.2-0.2V8.5c0-0.1,0.1-0.2,0.2-0.2H56c0.1,0,0.2,0,0.2,0.2l1.8,5.1h0.1V8.5
		c0-0.1,0.1-0.2,0.2-0.2H59.6z"/>
	<path class="st2" d="M65.3,8.3c0.1,0,0.2,0.1,0.2,0.2v1.2c0,0.1-0.1,0.2-0.2,0.2H64v7.8c0,0.1-0.1,0.2-0.2,0.2h-1.2
		c-0.1,0-0.2-0.1-0.2-0.2V9.9h-1.4c-0.1,0-0.2-0.1-0.2-0.2V8.5c0-0.1,0.1-0.2,0.2-0.2H65.3z"/>
	<path class="st2" d="M66.3,10c0-1.1,0.6-1.7,1.7-1.7h1.3c1.1,0,1.7,0.6,1.7,1.7v6.1c0,1.1-0.6,1.7-1.7,1.7H68
		c-1.1,0-1.7-0.6-1.7-1.7V10z M69,16.4c0.3,0,0.5-0.2,0.5-0.5v-5.5c0-0.3-0.2-0.5-0.5-0.5h-0.7c-0.3,0-0.5,0.2-0.5,0.5v5.5
		c0,0.3,0.2,0.5,0.5,0.5H69z"/>
	<path class="st2" d="M75.3,8.3c1.1,0,1.7,0.6,1.7,1.7v1.3c0,0.1-0.1,0.2-0.2,0.2h-1.2c-0.1,0-0.2-0.1-0.2-0.2v-0.9
		c0-0.3-0.2-0.5-0.5-0.5h-0.6c-0.3,0-0.5,0.2-0.5,0.5V12l2.9,0.9c0.2,0.1,0.3,0.2,0.3,0.4v2.8c0,1.1-0.6,1.7-1.7,1.7H74
		c-1.1,0-1.7-0.6-1.7-1.7v-1.3c0-0.1,0.1-0.2,0.2-0.2h1.2c0.1,0,0.2,0.1,0.2,0.2v0.9c0,0.3,0.2,0.5,0.5,0.5h0.6
		c0.3,0,0.5-0.2,0.5-0.5v-1.6l-2.8-0.9c-0.2-0.1-0.3-0.2-0.3-0.4V10c0-1.1,0.6-1.7,1.7-1.7H75.3z"/>
</g>
</svg>
