<?xml version="1.0" encoding="utf-8"?>
<!-- Generator: Adobe Illustrator 24.2.0, SVG Export Plug-In . SVG Version: 6.00 Build 0)  -->
<svg version="1.1" id="Layer_1" xmlns="http://www.w3.org/2000/svg" xmlns:xlink="http://www.w3.org/1999/xlink" x="0px" y="0px"
	 viewBox="0 0 86 86" style="enable-background:new 0 0 86 86;" xml:space="preserve">
<style type="text/css">
	.st0{fill:url(#SVGID_1_);}
	.st1{clip-path:url(#SVGID_3_);fill:#4E5567;}
	.st2{fill:#FCCF00;}
	.st3{fill:#FF4813;}
	.st4{fill:#00B768;}
</style>
<linearGradient id="SVGID_1_" gradientUnits="userSpaceOnUse" x1="39.1462" y1="79.7417" x2="47.1462" y2="3.2417" gradientTransform="matrix(1 0 0 -1 0 85.8898)">
	<stop  offset="0" style="stop-color:#ECEEF2"/>
	<stop  offset="1" style="stop-color:#D5D7DB"/>
</linearGradient>
<path class="st0" d="M0,32c0-11.2,0-16.8,2.2-21.1c1.9-3.8,5-6.8,8.7-8.7C15.2,0,20.8,0,32,0h22c11.2,0,16.8,0,21.1,2.2
	c3.8,1.9,6.8,5,8.7,8.7C86,15.2,86,20.8,86,32v22c0,11.2,0,16.8-2.2,21.1c-1.9,3.8-5,6.8-8.7,8.7C70.8,86,65.2,86,54,86H32
	c-11.2,0-16.8,0-21.1-2.2c-3.8-1.9-6.8-5-8.7-8.7C0,70.8,0,65.2,0,54V32z"/>
<g>
	<defs>
		<path id="SVGID_2_" d="M0,32c0-11.2,0-16.8,2.2-21.1c1.9-3.8,5-6.8,8.7-8.7C15.2,0,20.8,0,32,0h22c11.2,0,16.8,0,21.1,2.2
			c3.8,1.9,6.8,5,8.7,8.7C86,15.2,86,20.8,86,32v22c0,11.2,0,16.8-2.2,21.1c-1.9,3.8-5,6.8-8.7,8.7C70.8,86,65.2,86,54,86H32
			c-11.2,0-16.8,0-21.1-2.2c-3.8-1.9-6.8-5-8.7-8.7C0,70.8,0,65.2,0,54V32z"/>
	</defs>
	<clipPath id="SVGID_3_">
		<use xlink:href="#SVGID_2_"  style="overflow:visible;"/>
	</clipPath>
	<rect x="0.1" class="st1" width="85.9" height="21.3"/>
</g>
<circle class="st2" cx="13" cy="11.9" r="2.9"/>
<circle class="st3" cx="22.9" cy="11.9" r="2.9"/>
<circle class="st4" cx="32.9" cy="11.9" r="2.9"/>
</svg>
