<svg xmlns="http://www.w3.org/2000/svg" viewBox="0 0 697.15 173.19">
  <g id="Layer_2" data-name="Layer 2">
    <g id="samples">
      <g>
        <path d="M0,79.54c.82-4.1,1.05-8.28,1.89-12.39C8.9,32.56,38.75,4.8,73.73.67c23.09-2.72,44,2.82,62.62,16.93,2.36,1.79,2.39,1.83.2,3.67-5.05,4.22-10.15,8.36-15.15,12.62-1.32,1.13-2.27.75-3.49-.06a57.17,57.17,0,0,0-34.27-9.9C61,24.81,43.32,34.84,32.05,54.63,17.52,80.15,22.89,110.7,44.7,130.31c17.45,15.68,44.71,19.48,65.79,9.22a56.58,56.58,0,0,0,14.9-10c1.58-1.52,2.75-1.78,4.45,0,4.23,4.48,8.64,8.79,13.06,13.09,1.27,1.24,1.5,2,.06,3.36-14.75,13.52-31.95,21.43-52,22.87-22.83,1.64-43.14-4.94-60.59-19.57C13.83,135.49,4,117.64.89,96.21.56,93.94.77,91.61,0,89.4Z" style="fill: #418acd"/>
        <path d="M73.62,113.89A2.3,2.3,0,0,1,72,112.75q-14.74-18-29.49-36.08c-1-1.17-1.1-2,.22-3C48,69.48,53.11,65.27,58.18,61c1.61-1.37,2.3-.29,3.14.73q7.12,8.67,14.2,17.36c2.12,2.61,2.07,2.59,4.74.4q26.65-21.91,53.34-43.81c2.6-2.13,5.27-4.21,7.71-6.52,1.74-1.66,2.7-1.25,4.11.42a106.1,106.1,0,0,1,9.84,14.15c1,1.63.94,2.68-.61,4-7.71,6.27-15.33,12.66-23,19q-27.7,22.78-55.42,45.54A7.26,7.26,0,0,1,73.62,113.89Z" style="fill: #56b839"/>
        <path d="M186.25,75.52c9.95,0,19.9.06,29.84,0,2.4,0,3.12.81,3.08,3.14-.12,6.49-.1,13,0,19.48,0,2-.65,2.75-2.7,2.75q-30.47-.07-60.91,0c-2.06,0-2.72-.76-2.7-2.76.08-6.49.11-13,0-19.48,0-2.33.69-3.16,3.08-3.13C166,75.58,176.14,75.52,186.25,75.52Z" style="fill: #418acd"/>
        <g>
          <path d="M697.15,169.33c-9.29,0-18.58,0-27.86.08a2.66,2.66,0,0,1-2.87-2.1c-1.42-4.12-3-8.19-4.39-12.3-.54-1.55-1-1.61-2.07-.38-16.46,19.56-43.83,23.16-64.24,13.14-18-8.84-28.64-23.75-31.31-43.82-2.27-17,1.9-32.37,13-45.54C588,65.86,601.69,59.56,618.08,58.72c23.44-1.2,45.64,14.92,53.43,37.61,8,23.4,16.39,46.68,24.61,70,.29.85.68,1.67,1,2.5Zm-78-81c-15.72-.93-26.7,12.92-27,27.35-.26,15.28,12,27.14,27.17,27.62,14.07.44,27.18-12.5,27.21-27.58C646.58,99.68,632.7,87.29,619.12,88.37Z" style="fill: #418acd"/>
          <path d="M369.59,63.56V4.15c0-3.6,0-3.62,3.53-3.62q10.85,0,21.7,0c3.25,0,3.33.08,3.33,3.31q0,29.1,0,58.19c0,3.29,0,3.25,3.1,1.88,36.9-16.54,74.05,7.06,78.84,42.75,2.66,19.78-2.6,37.16-17.35,51.13a51.73,51.73,0,0,1-35.36,14.62c-12.06.33-23.24-2.22-33.08-9.28C379.5,152.5,371,138.18,370,119.78,369,99.74,369.93,79.68,369.59,63.56Zm55.53,79.17c14.22,1,27.18-11.8,27.32-27s-13.22-27.38-26.79-27.55c-13.78-.17-27.59,11.66-27.59,27.22S411.74,143.66,425.12,142.73Z" style="fill: #418acd"/>
          <path d="M236.87,84.8V4.41c0-3.87,0-3.88,3.76-3.88q10.73,0,21.45,0c3.41,0,3.42,0,3.42,3.44q0,67.82,0,135.63a18.25,18.25,0,0,1,0,2.22c-.25,2.19.72,2.82,2.84,2.81,14-.07,27.95,0,41.93,0,3.51,0,3.52,0,3.53,3.6,0,6.17-.05,12.33,0,18.5,0,2-.71,2.73-2.75,2.73q-35.74-.08-71.51,0c-2.86,0-2.7-1.63-2.7-3.52Q236.88,125.37,236.87,84.8Z" style="fill: #418acd"/>
          <path d="M494.41,140.51c0-8,0-15.95,0-23.92.09-17.3,5.91-32.16,18.88-43.92a51.73,51.73,0,0,1,34.41-14c2.14-.06,2.91.69,2.89,2.83q-.12,11.72,0,23.43c0,2.11-.78,2.85-2.87,3-13.27.85-24.53,12.57-24.67,26-.18,17.18-.06,34.36-.07,51.54,0,3.93,0,3.94-3.94,3.94-7.15,0-14.31,0-21.46,0-3,0-3.16-.14-3.16-3.23Q494.41,153.34,494.41,140.51Z" style="fill: #418acd"/>
          <path d="M327.16,114.08q0-25.9,0-51.8c0-3.51,0-3.53,3.61-3.53,7.32,0,14.64.06,22,0,2.22,0,3,.65,3,2.94q-.08,52.42,0,104.83c0,2.28-.8,3-3,3-7.48-.11-15-.14-22.44,0-2.6.05-3.18-1-3.17-3.33C327.19,148.77,327.16,131.43,327.16,114.08Z" style="fill: #418acd"/>
          <path d="M341.35,16.81A17,17,0,0,1,358.19,34c0,10-7.2,17.44-16.82,17.44-9.86,0-16.8-7.27-16.79-17.59C324.58,24,331.63,16.81,341.35,16.81Z" style="fill: #418acd"/>
        </g>
      </g>
    </g>
  </g>
</svg>
