<svg xmlns="http://www.w3.org/2000/svg" viewBox="0 0 231.88 251.56">
  <g id="Layer_2" data-name="Layer 2">
    <g id="samples">
      <g>
        <path d="M0,118.29c1.23-6.1,1.57-12.32,2.81-18.43C13.23,48.42,57.62,7.14,109.65,1,144-3,175.14,5.19,202.78,26.18c3.51,2.66,3.55,2.72.29,5.45-7.5,6.27-15.09,12.44-22.53,18.78-2,1.67-3.38,1.1-5.18-.09-15.46-10.2-32.54-15.45-51-14.74C90.71,36.89,64.43,51.81,47.67,81.24c-21.61,38-13.63,83.4,18.8,112.55,26,23.33,66.5,29,97.85,13.72,8.09-3.93,15.67-8.57,22.16-14.82,2.35-2.27,4.09-2.65,6.62,0,6.29,6.67,12.85,13.09,19.42,19.48,1.89,1.83,2.23,3,.09,5-21.94,20.11-47.52,31.88-77.35,34-33.95,2.44-64.15-7.35-90.11-29.1C20.57,201.49,6,175,1.33,143.09.83,139.71,1.15,136.24,0,133Z" style="fill: #418acd"/>
        <path d="M109.48,169.37a3.4,3.4,0,0,1-2.36-1.69Q85.19,140.86,63.27,114c-1.43-1.75-1.64-2.93.32-4.5,7.72-6.2,15.39-12.46,22.93-18.87,2.4-2,3.43-.44,4.68,1.08q10.58,12.9,21.12,25.83c3.15,3.88,3.08,3.85,7,.59Q159,85.57,198.69,53c3.87-3.18,7.84-6.26,11.46-9.71,2.6-2.47,4-1.86,6.11.64a158.78,158.78,0,0,1,14.65,21c1.43,2.42,1.39,4-.92,5.87-11.47,9.33-22.8,18.83-34.22,28.22q-41.19,33.9-82.42,67.73C112.14,167.79,111,169,109.48,169.37Z" style="fill: #56b839"/>
      </g>
    </g>
  </g>
</svg>
