<svg xmlns="http://www.w3.org/2000/svg" viewBox="0 0 508.9 125.83">
  <g id="Layer_2" data-name="Layer 2">
    <g id="samples">
      <g>
        <g>
          <path d="M83.31,84a41.87,41.87,0,0,1-.46,6.21H22A20.52,20.52,0,0,0,41.73,104.8a19.61,19.61,0,0,0,15.73-7.47l12.77,17a40,40,0,0,1-28.5,11.37,40.29,40.29,0,0,1-29.58-12.12A40.17,40.17,0,0,1,0,84,39.82,39.82,0,0,1,12.22,54.64,40.36,40.36,0,0,1,41.73,42.51,40.17,40.17,0,0,1,71.17,54.62,39.91,39.91,0,0,1,83.31,84ZM59.8,74.44Q54,63.38,41.73,63.38T23.51,74.44Z" style="fill: #fff"/>
          <path d="M162.42,0H183.6V105.27h36.28v18.06H162.42Z" style="fill: #fff"/>
          <path d="M228.44,24.6a11.93,11.93,0,0,1,3.66-8.87,12.32,12.32,0,0,1,9-3.58,12,12,0,0,1,8.8,3.66,12,12,0,0,1,3.66,8.79,12.33,12.33,0,0,1-3.59,9,11.91,11.91,0,0,1-8.87,3.66A12.5,12.5,0,0,1,228.44,24.6Zm2.18,17.91h21v80.82h-21Z" style="fill: #fff"/>
          <path d="M262.39,0h21V47.81a40.83,40.83,0,0,1,20.71-5.45A41.45,41.45,0,0,1,345.7,83.94a40.37,40.37,0,0,1-12.14,29.51,41.83,41.83,0,0,1-59,.07,40.24,40.24,0,0,1-12.15-29.58Zm27.1,98.57a19.94,19.94,0,0,0,14.63,6.08,19.69,19.69,0,0,0,14.56-6.08,20,20,0,0,0,6-14.63,20.73,20.73,0,0,0-20.56-20.56,20.06,20.06,0,0,0-14.63,6,19.69,19.69,0,0,0-6.08,14.56A19.92,19.92,0,0,0,289.49,98.57Z" style="fill: #fff"/>
          <path d="M368.67,54.5a40.37,40.37,0,0,1,29.51-12.14v21a20.08,20.08,0,0,0-14.64,6,19.68,19.68,0,0,0-6.07,14.56v39.39h-21V83.94A40,40,0,0,1,368.67,54.5Z" style="fill: #fff"/>
          <path d="M486.54,123.33l-4.41-12.15q-12.45,14.64-31.77,14.65a41.58,41.58,0,0,1-41.59-41.58,41.24,41.24,0,0,1,27.41-39.09,41.16,41.16,0,0,1,14.32-2.65,40.39,40.39,0,0,1,23.91,7.56,41,41,0,0,1,15.18,20l19.31,53.25Zm-47.87-22.12A19.75,19.75,0,0,0,450.35,105a20.06,20.06,0,0,0,14.64-6,19.83,19.83,0,0,0,6.07-14.61,19.75,19.75,0,0,0-8.88-17,20.56,20.56,0,0,0-11.83-3.6q-10.91,0-16.82,8.76a20.62,20.62,0,0,0-3.74,11.88A19.38,19.38,0,0,0,438.67,101.21Z" style="fill: #fff"/>
        </g>
        <path d="M124.91,74.08c6.09,0,12.18,0,18.26,0,1.47,0,1.91.5,1.88,1.92-.07,4-.05,8,0,11.92,0,1.23-.4,1.69-1.66,1.68q-18.63,0-37.26,0c-1.26,0-1.67-.46-1.65-1.68,0-4,.06-8,0-11.92,0-1.43.42-1.93,1.89-1.92C112.54,74.12,118.73,74.08,124.91,74.08Z" style="fill: #fff"/>
      </g>
    </g>
  </g>
</svg>
