<svg xmlns="http://www.w3.org/2000/svg" viewBox="0 0 509.74 492.21">
  <g id="Layer_2" data-name="Layer 2">
    <g id="samples">
      <g>
        <g>
          <g>
            <path d="M84.15,392.38a41.87,41.87,0,0,1-.46,6.21H22.8a20.51,20.51,0,0,0,19.77,14.64,19.59,19.59,0,0,0,15.73-7.48l12.77,17a40,40,0,0,1-28.5,11.37A40.28,40.28,0,0,1,13,422a41.68,41.68,0,0,1,.08-58.91,40.35,40.35,0,0,1,29.5-12.12A40.17,40.17,0,0,1,72,363.05,39.9,39.9,0,0,1,84.15,392.38Zm-23.51-9.52q-5.76-11.06-18.07-11.05T24.36,382.86Z" style="fill: #418acd"/>
            <path d="M163.26,308.43h21.18V413.7h36.28v18.06H163.26Z" style="fill: #418acd"/>
            <path d="M229.28,333a11.9,11.9,0,0,1,3.66-8.87,12.33,12.33,0,0,1,9-3.59A12.5,12.5,0,0,1,254.36,333a12.33,12.33,0,0,1-3.59,9,11.89,11.89,0,0,1-8.87,3.65A12.48,12.48,0,0,1,229.28,333Zm2.19,17.91h21v80.82h-21Z" style="fill: #418acd"/>
            <path d="M263.23,308.43h21v47.8A40.91,40.91,0,0,1,305,350.78a41.73,41.73,0,1,1-41.74,41.58ZM290.33,407A20,20,0,0,0,305,413.07,19.71,19.71,0,0,0,319.53,407a20.11,20.11,0,0,0,6-14.64A20.73,20.73,0,0,0,305,371.81a20.11,20.11,0,0,0-14.64,6,19.69,19.69,0,0,0-6.07,14.56A20,20,0,0,0,290.33,407Z" style="fill: #418acd"/>
            <path d="M369.51,362.93A40.34,40.34,0,0,1,399,350.78v21a20.11,20.11,0,0,0-14.64,6,19.73,19.73,0,0,0-6.07,14.56v39.4h-21v-39.4A40,40,0,0,1,369.51,362.93Z" style="fill: #418acd"/>
            <path d="M487.38,431.76,483,419.61q-12.47,14.64-31.78,14.64a41.27,41.27,0,0,1-39.1-27.41,40.28,40.28,0,0,1-2.49-14.17,41.71,41.71,0,0,1,65.64-34.18,41.14,41.14,0,0,1,15.18,20l19.31,53.26Zm-47.87-22.13a19.75,19.75,0,0,0,11.68,3.75,20,20,0,0,0,14.64-6A20.72,20.72,0,0,0,463,375.71a20.63,20.63,0,0,0-11.83-3.59q-10.9,0-16.82,8.75a20.67,20.67,0,0,0-3.74,11.88A19.36,19.36,0,0,0,439.51,409.63Z" style="fill: #418acd"/>
          </g>
          <path d="M125.76,382.51c6.08,0,12.17,0,18.25,0,1.47,0,1.91.49,1.89,1.92-.08,4-.06,8,0,11.92,0,1.22-.4,1.68-1.66,1.68q-18.63,0-37.26,0c-1.26,0-1.67-.46-1.65-1.68.05-4,.07-7.95,0-11.92,0-1.43.42-1.94,1.89-1.92C113.38,382.54,119.57,382.51,125.76,382.51Z" style="fill: #418acd"/>
          <g>
            <path d="M1.24,492a1.54,1.54,0,0,1-.83-.25.76.76,0,0,1-.41-.67.6.6,0,0,1,0-.23l6.85-22.25a1,1,0,0,1,.49-.57,1.76,1.76,0,0,1,.79-.18,1.72,1.72,0,0,1,.82.2,1,1,0,0,1,.49.55l6.81,22.25a.25.25,0,0,0,0,.1.22.22,0,0,1,0,.1.81.81,0,0,1-.43.67A1.55,1.55,0,0,1,15,492a.79.79,0,0,1-.82-.56l-1.51-5H3.6l-1.5,5a.62.62,0,0,1-.32.43A1.08,1.08,0,0,1,1.24,492Zm10.88-7.47-4-13.21-4,13.21Z" style="fill: #233437"/>
            <path d="M30.7,474a8,8,0,0,0-.19-1.21,3.41,3.41,0,0,0-.66-1.3,4.09,4.09,0,0,0-1.38-1,5.54,5.54,0,0,0-2.36-.42,4.74,4.74,0,0,0-3.5,1.21A5.12,5.12,0,0,0,21.39,475v10.16a5.16,5.16,0,0,0,1.23,3.8,5,5,0,0,0,3.63,1.22,5.48,5.48,0,0,0,2.32-.41,3.4,3.4,0,0,0,1.29-1,3.49,3.49,0,0,0,.61-1.31,10.23,10.23,0,0,0,.23-1.3c.07-.56.43-.85,1.08-.85a1.09,1.09,0,0,1,.82.27,1.54,1.54,0,0,1,.26,1.08,5.1,5.1,0,0,1-.45,2.11,5.23,5.23,0,0,1-1.35,1.77,6.46,6.46,0,0,1-2.16,1.21,8.62,8.62,0,0,1-2.88.45,9.09,9.09,0,0,1-2.63-.38,5.5,5.5,0,0,1-2.16-1.22,5.88,5.88,0,0,1-1.46-2.16,8.65,8.65,0,0,1-.54-3.26V475a8.33,8.33,0,0,1,.56-3.22,5.82,5.82,0,0,1,1.49-2.16,5.65,5.65,0,0,1,2.18-1.22,9.13,9.13,0,0,1,2.65-.37,8.52,8.52,0,0,1,2.87.44,6.15,6.15,0,0,1,2.11,1.19,5.5,5.5,0,0,1,1.32,1.74,5,5,0,0,1,.45,2.1,1.48,1.48,0,0,1-.26,1.06,1.13,1.13,0,0,1-.82.25,1.16,1.16,0,0,1-.8-.23A.89.89,0,0,1,30.7,474Z" style="fill: #233437"/>
            <path d="M43.18,492.21a9.23,9.23,0,0,1-2.68-.38,5.51,5.51,0,0,1-3.61-3.38,8.88,8.88,0,0,1-.52-3.26V475a8.76,8.76,0,0,1,.52-3.22,5.51,5.51,0,0,1,3.61-3.38,9.93,9.93,0,0,1,5.37,0A5.5,5.5,0,0,1,48,469.65a5.63,5.63,0,0,1,1.45,2.16A8.76,8.76,0,0,1,50,475v10.16a8.88,8.88,0,0,1-.52,3.26A5.63,5.63,0,0,1,48,490.61a5.5,5.5,0,0,1-2.16,1.22A9.25,9.25,0,0,1,43.18,492.21ZM47.84,475a5.08,5.08,0,0,0-1.23-3.76,4.66,4.66,0,0,0-3.43-1.21,4.65,4.65,0,0,0-3.42,1.21A5.08,5.08,0,0,0,38.53,475v10.16a5.12,5.12,0,0,0,1.23,3.8,4.66,4.66,0,0,0,3.42,1.22A4.67,4.67,0,0,0,46.61,489a5.12,5.12,0,0,0,1.23-3.8Z" style="fill: #233437"/>
            <path d="M64,483c-.24.46-.53.69-.88.69s-.61-.23-.85-.69l-5.41-10.39v18.52a.69.69,0,0,1-.34.63,1.33,1.33,0,0,1-.74.22,1.27,1.27,0,0,1-.75-.22.7.7,0,0,1-.33-.63V469.11a.92.92,0,0,1,.33-.82,1.21,1.21,0,0,1,.75-.23,1.29,1.29,0,0,1,1,.44,5.09,5.09,0,0,1,.74,1.06l5.63,10.88,5.64-10.88a5.07,5.07,0,0,1,.73-1.06,1.31,1.31,0,0,1,1-.44,1.2,1.2,0,0,1,.77.23.94.94,0,0,1,.31.82v22.05a.69.69,0,0,1-.32.63,1.37,1.37,0,0,1-1.49,0,.69.69,0,0,1-.35-.63V472.74Z" style="fill: #233437"/>
            <path d="M76.6,468.84c0-.48.31-.74.92-.78h6a9.19,9.19,0,0,1,2.66.37,5.43,5.43,0,0,1,2.14,1.2,5.59,5.59,0,0,1,1.43,2.15A8.76,8.76,0,0,1,90.3,475v.33a8.82,8.82,0,0,1-.52,3.23,5.77,5.77,0,0,1-1.44,2.16,5.59,5.59,0,0,1-2.17,1.21,8.91,8.91,0,0,1-2.68.38H78.77v8.85a.69.69,0,0,1-.35.63,1.37,1.37,0,0,1-1.49,0,.7.7,0,0,1-.33-.63Zm2.17,1.22v10.38h4.72a4.62,4.62,0,0,0,3.42-1.23,5.15,5.15,0,0,0,1.23-3.78V475a5.08,5.08,0,0,0-1.23-3.76,4.65,4.65,0,0,0-3.42-1.21Z" style="fill: #233437"/>
            <path d="M92,492a1.54,1.54,0,0,1-.83-.25.76.76,0,0,1-.41-.67.6.6,0,0,1,0-.23l6.85-22.25a1,1,0,0,1,.49-.57,1.76,1.76,0,0,1,.79-.18,1.72,1.72,0,0,1,.82.2,1,1,0,0,1,.49.55L107,490.86a.25.25,0,0,0,0,.1.22.22,0,0,1,0,.1.78.78,0,0,1-.43.67,1.55,1.55,0,0,1-.88.28.79.79,0,0,1-.82-.56l-1.51-5H94.36l-1.5,5a.64.64,0,0,1-.31.43A1.14,1.14,0,0,1,92,492Zm10.88-7.47-4-13.21-4,13.21Z" style="fill: #233437"/>
            <path d="M123,492a1.11,1.11,0,0,1-.82-.38,3.7,3.7,0,0,1-.62-.87L112.42,473v18.12a.69.69,0,0,1-.35.63,1.37,1.37,0,0,1-1.49,0,.7.7,0,0,1-.33-.63V468.88a.66.66,0,0,1,.33-.64,1.55,1.55,0,0,1,.76-.18,1.24,1.24,0,0,1,1,.44,5.45,5.45,0,0,1,.72,1.06L121.89,487V468.84a.63.63,0,0,1,.33-.6,1.51,1.51,0,0,1,.75-.18,1.59,1.59,0,0,1,.74.18.62.62,0,0,1,.34.6v22.32a.69.69,0,0,1-.34.63A1.33,1.33,0,0,1,123,492Z" style="fill: #233437"/>
            <path d="M140.66,480.51h-9.47v10.65a.69.69,0,0,1-.34.63,1.33,1.33,0,0,1-.74.22,1.3,1.3,0,0,1-.75-.22.7.7,0,0,1-.33-.63V468.84a.63.63,0,0,1,.33-.6,1.54,1.54,0,0,1,.75-.18,1.59,1.59,0,0,1,.74.18.62.62,0,0,1,.34.6v9.8h9.47v-9.8a.63.63,0,0,1,.33-.6,1.54,1.54,0,0,1,.75-.18,1.56,1.56,0,0,1,.74.18.63.63,0,0,1,.35.6v22.32a.69.69,0,0,1-.35.63,1.31,1.31,0,0,1-.74.22,1.3,1.3,0,0,1-.75-.22.7.7,0,0,1-.33-.63Z" style="fill: #233437"/>
            <path d="M147.25,492a1.57,1.57,0,0,1-.84-.25.76.76,0,0,1-.41-.67.43.43,0,0,1,0-.23l6.84-22.25a1,1,0,0,1,.49-.57,1.79,1.79,0,0,1,.79-.18,1.69,1.69,0,0,1,.82.2,1,1,0,0,1,.49.55l6.82,22.25a.28.28,0,0,0,0,.1s0,.05,0,.1a.78.78,0,0,1-.43.67,1.53,1.53,0,0,1-.88.28.79.79,0,0,1-.82-.56l-1.51-5h-9.07l-1.51,5a.61.61,0,0,1-.31.43A1.11,1.11,0,0,1,147.25,492Zm10.88-7.47-4-13.21-4,13.21Z" style="fill: #233437"/>
            <path d="M174.8,483c-.24.46-.53.69-.88.69s-.61-.23-.85-.69l-5.41-10.39v18.52a.69.69,0,0,1-.34.63,1.33,1.33,0,0,1-.74.22,1.27,1.27,0,0,1-.75-.22.7.7,0,0,1-.33-.63V469.11a.92.92,0,0,1,.33-.82,1.21,1.21,0,0,1,.75-.23,1.29,1.29,0,0,1,1,.44,5.09,5.09,0,0,1,.74,1.06L174,480.44l5.64-10.88a5.07,5.07,0,0,1,.73-1.06,1.31,1.31,0,0,1,1-.44,1.2,1.2,0,0,1,.77.23.94.94,0,0,1,.31.82v22.05a.69.69,0,0,1-.32.63,1.37,1.37,0,0,1-1.49,0,.69.69,0,0,1-.35-.63V472.74Z" style="fill: #233437"/>
            <path d="M189.55,479.07h5.14a.69.69,0,0,1,.61.29,1.17,1.17,0,0,1,.21.69,1.06,1.06,0,0,1-.18.6.69.69,0,0,1-.64.28h-5.14V490H200a.68.68,0,0,1,.61.31,1.24,1.24,0,0,1,.21.71,1.32,1.32,0,0,1-.18.67.69.69,0,0,1-.64.31H188.37a1.1,1.1,0,0,1-.67-.22.7.7,0,0,1-.31-.63V468.88a.68.68,0,0,1,.31-.63,1.21,1.21,0,0,1,.67-.19H200a.68.68,0,0,1,.64.29,1.34,1.34,0,0,1,0,1.39.69.69,0,0,1-.61.32H189.55Z" style="fill: #233437"/>
            <path d="M216.74,492a1.09,1.09,0,0,1-.81-.38,4,4,0,0,1-.63-.87L206.19,473v18.12a.69.69,0,0,1-.34.63,1.33,1.33,0,0,1-.74.22,1.3,1.3,0,0,1-.75-.22.7.7,0,0,1-.33-.63V468.88a.66.66,0,0,1,.33-.64,1.54,1.54,0,0,1,.75-.18,1.26,1.26,0,0,1,1,.44,5.45,5.45,0,0,1,.72,1.06L215.66,487V468.84a.63.63,0,0,1,.33-.6,1.54,1.54,0,0,1,.75-.18,1.56,1.56,0,0,1,.74.18.63.63,0,0,1,.35.6v22.32a.69.69,0,0,1-.35.63A1.31,1.31,0,0,1,216.74,492Z" style="fill: #233437"/>
            <path d="M234.77,468.06a.68.68,0,0,1,.62.31,1.21,1.21,0,0,1,.19.67,1.39,1.39,0,0,1-.19.72.67.67,0,0,1-.62.33h-5.48v21.07a.69.69,0,0,1-.34.63,1.33,1.33,0,0,1-.74.22,1.3,1.3,0,0,1-.75-.22.7.7,0,0,1-.33-.63V470.09h-5.5a.71.71,0,0,1-.61-.31,1.26,1.26,0,0,1-.21-.71,1.33,1.33,0,0,1,.19-.69.7.7,0,0,1,.63-.32Z" style="fill: #233437"/>
            <path d="M244.56,492.21a9.35,9.35,0,0,1-2.69-.38,5.47,5.47,0,0,1-3.6-3.38,8.88,8.88,0,0,1-.52-3.26V475a8.76,8.76,0,0,1,.52-3.22,5.47,5.47,0,0,1,3.6-3.38,10,10,0,0,1,5.38,0,5.5,5.5,0,0,1,2.16,1.22,5.61,5.61,0,0,1,1.44,2.16,8.75,8.75,0,0,1,.53,3.22v10.16a8.86,8.86,0,0,1-.53,3.26,5.61,5.61,0,0,1-1.44,2.16,5.5,5.5,0,0,1-2.16,1.22A9.3,9.3,0,0,1,244.56,492.21ZM249.21,475a5.12,5.12,0,0,0-1.22-3.76,5.45,5.45,0,0,0-6.85,0,5.08,5.08,0,0,0-1.23,3.76v10.16a5.12,5.12,0,0,0,1.23,3.8,5.42,5.42,0,0,0,6.85,0,5.16,5.16,0,0,0,1.22-3.8Z" style="fill: #233437"/>
            <path d="M269.43,468.06a9.3,9.3,0,0,1,2.69.37,5.72,5.72,0,0,1,2.18,1.22,5.52,5.52,0,0,1,1.45,2.16,8.75,8.75,0,0,1,.53,3.22v10a8.94,8.94,0,0,1-.53,3.26,5.44,5.44,0,0,1-3.63,3.37,9.3,9.3,0,0,1-2.69.38h-5.8a1,1,0,0,1-.72-.25.76.76,0,0,1-.26-.57V468.84a.71.71,0,0,1,.26-.55,1,1,0,0,1,.72-.23Zm-4.62,2V490h4.62a4.69,4.69,0,0,0,3.44-1.23,5.11,5.11,0,0,0,1.25-3.78V475a5,5,0,0,0-1.25-3.76,4.72,4.72,0,0,0-3.44-1.21Z" style="fill: #233437"/>
            <path d="M281,468.84a.64.64,0,0,1,.32-.6,1.55,1.55,0,0,1,.76-.18,1.52,1.52,0,0,1,.73.18.63.63,0,0,1,.35.6v22.32a.69.69,0,0,1-.35.63,1.28,1.28,0,0,1-.73.22,1.31,1.31,0,0,1-.76-.22.71.71,0,0,1-.32-.63Z" style="fill: #233437"/>
            <path d="M299.34,474a4.49,4.49,0,0,0-1.36-2.93,4.7,4.7,0,0,0-3.29-1,4.65,4.65,0,0,0-3.42,1.21A5.08,5.08,0,0,0,290,475v10.16a5.16,5.16,0,0,0,1.23,3.79,5.38,5.38,0,0,0,6.85,0,5.16,5.16,0,0,0,1.22-3.79v-3.9H295a.65.65,0,0,1-.57-.29,1.13,1.13,0,0,1-.21-.66,1,1,0,0,1,.21-.63.67.67,0,0,1,.57-.28h5.77a.72.72,0,0,1,.59.24,1,1,0,0,1,.2.61v4.91a8.86,8.86,0,0,1-.53,3.26,5.61,5.61,0,0,1-1.44,2.16,5.5,5.5,0,0,1-2.16,1.22,9.3,9.3,0,0,1-2.69.38,9.18,9.18,0,0,1-2.68-.38,5.53,5.53,0,0,1-2.17-1.22,5.61,5.61,0,0,1-1.44-2.16,8.88,8.88,0,0,1-.52-3.26V475a8.76,8.76,0,0,1,.52-3.22,5.48,5.48,0,0,1,3.59-3.38,9.12,9.12,0,0,1,2.67-.37,8.91,8.91,0,0,1,2.83.42,7,7,0,0,1,2.17,1.18,5.08,5.08,0,0,1,1.37,1.8,5.41,5.41,0,0,1,.48,2.27,1.06,1.06,0,0,1-.3.88,1.25,1.25,0,0,1-.78.23,1.45,1.45,0,0,1-.74-.18A.75.75,0,0,1,299.34,474Z" style="fill: #233437"/>
            <path d="M305.86,468.84a.63.63,0,0,1,.33-.6,1.63,1.63,0,0,1,1.49,0,.63.63,0,0,1,.35.6v22.32a.69.69,0,0,1-.35.63,1.37,1.37,0,0,1-1.49,0,.7.7,0,0,1-.33-.63Z" style="fill: #233437"/>
            <path d="M325,468.06a.68.68,0,0,1,.62.31,1.22,1.22,0,0,1,.2.67,1.39,1.39,0,0,1-.2.72.67.67,0,0,1-.62.33H319.5v21.07a.69.69,0,0,1-.35.63,1.37,1.37,0,0,1-1.49,0,.7.7,0,0,1-.33-.63V470.09h-5.5a.71.71,0,0,1-.61-.31,1.26,1.26,0,0,1-.21-.71,1.33,1.33,0,0,1,.19-.69.7.7,0,0,1,.63-.32Z" style="fill: #233437"/>
            <path d="M326.38,492a1.55,1.55,0,0,1-.84-.25.76.76,0,0,1-.41-.67.6.6,0,0,1,0-.23L332,468.61a1,1,0,0,1,.49-.57,1.76,1.76,0,0,1,.79-.18,1.72,1.72,0,0,1,.82.2,1,1,0,0,1,.49.55l6.82,22.25a.28.28,0,0,0,0,.1.22.22,0,0,1,0,.1.78.78,0,0,1-.43.67,1.55,1.55,0,0,1-.88.28.79.79,0,0,1-.82-.56l-1.51-5h-9.07l-1.51,5a.64.64,0,0,1-.31.43A1.13,1.13,0,0,1,326.38,492Zm10.87-7.47-4-13.21-4,13.21Z" style="fill: #233437"/>
            <path d="M345.61,492a1.1,1.1,0,0,1-.67-.22.7.7,0,0,1-.31-.63V468.84a.64.64,0,0,1,.32-.6,1.55,1.55,0,0,1,.76-.18,1.52,1.52,0,0,1,.73.18.63.63,0,0,1,.35.6V490h9.34a.58.58,0,0,1,.54.31,1.32,1.32,0,0,1,.18.67,1.41,1.41,0,0,1-.18.71.6.6,0,0,1-.54.31Z" style="fill: #233437"/>
            <path d="M373.13,468.06a9.3,9.3,0,0,1,2.69.37,5.65,5.65,0,0,1,2.18,1.22,5.54,5.54,0,0,1,1.46,2.16A9,9,0,0,1,380,475v10a9.17,9.17,0,0,1-.52,3.26,5.69,5.69,0,0,1-1.46,2.16,5.63,5.63,0,0,1-2.18,1.21,9.3,9.3,0,0,1-2.69.38h-5.8a1,1,0,0,1-.72-.25.76.76,0,0,1-.26-.57V468.84a.71.71,0,0,1,.26-.55,1,1,0,0,1,.72-.23Zm-4.62,2V490h4.62a4.67,4.67,0,0,0,3.44-1.23,5.11,5.11,0,0,0,1.25-3.78V475a5,5,0,0,0-1.25-3.76,4.7,4.7,0,0,0-3.44-1.21Z" style="fill: #233437"/>
            <path d="M386.86,479.07H392a.68.68,0,0,1,.6.29,1.17,1.17,0,0,1,.21.69,1.06,1.06,0,0,1-.18.6.68.68,0,0,1-.63.28h-5.15V490h10.49a.67.67,0,0,1,.6.31,1.24,1.24,0,0,1,.21.71,1.31,1.31,0,0,1-.17.67.71.71,0,0,1-.64.31H385.68a1.12,1.12,0,0,1-.67-.22.7.7,0,0,1-.31-.63V468.88a.68.68,0,0,1,.31-.63,1.24,1.24,0,0,1,.67-.19h11.67a.7.7,0,0,1,.64.29,1.37,1.37,0,0,1,0,1.39.68.68,0,0,1-.6.32H386.86Z" style="fill: #233437"/>
            <path d="M407.9,468.84c0-.48.3-.74.91-.78h6a9.19,9.19,0,0,1,2.66.37,5.43,5.43,0,0,1,2.14,1.2,5.59,5.59,0,0,1,1.43,2.15,8.76,8.76,0,0,1,.52,3.22v.33a8.82,8.82,0,0,1-.52,3.23,5.77,5.77,0,0,1-1.44,2.16,5.59,5.59,0,0,1-2.17,1.21,8.91,8.91,0,0,1-2.68.38h-4.72v8.85a.69.69,0,0,1-.35.63,1.28,1.28,0,0,1-.73.22,1.31,1.31,0,0,1-.76-.22.71.71,0,0,1-.32-.63Zm2.16,1.22v10.38h4.72a4.62,4.62,0,0,0,3.42-1.23,5.15,5.15,0,0,0,1.23-3.78V475a5.08,5.08,0,0,0-1.23-3.76,4.65,4.65,0,0,0-3.42-1.21Z" style="fill: #233437"/>
            <path d="M423.3,492a1.55,1.55,0,0,1-.84-.25.76.76,0,0,1-.41-.67.6.6,0,0,1,0-.23l6.85-22.25a1,1,0,0,1,.49-.57,1.76,1.76,0,0,1,.79-.18,1.69,1.69,0,0,1,.82.2,1,1,0,0,1,.49.55l6.82,22.25a.28.28,0,0,0,0,.1.22.22,0,0,1,0,.1.78.78,0,0,1-.43.67,1.55,1.55,0,0,1-.88.28.79.79,0,0,1-.82-.56l-1.51-5h-9.08l-1.5,5a.64.64,0,0,1-.31.43A1.13,1.13,0,0,1,423.3,492Zm10.87-7.47-4-13.21-4,13.21Z" style="fill: #233437"/>
            <path d="M441.55,468.84q0-.72.81-.78h5.8a11.42,11.42,0,0,1,2.73.31,5.8,5.8,0,0,1,2.24,1.06,5.29,5.29,0,0,1,1.54,2,7.4,7.4,0,0,1,.57,3.08,7.9,7.9,0,0,1-.39,2.64,5.63,5.63,0,0,1-1.08,1.87,4.86,4.86,0,0,1-1.62,1.19,8.33,8.33,0,0,1-2,.62l5.05,9.71a.66.66,0,0,1,.13.42,1,1,0,0,1-.39.77,1.29,1.29,0,0,1-.86.34.82.82,0,0,1-.67-.37,6.36,6.36,0,0,1-.47-.77l-5.05-9.83h-4.16v10.06a.69.69,0,0,1-.35.63,1.28,1.28,0,0,1-.73.22,1.31,1.31,0,0,1-.76-.22.71.71,0,0,1-.32-.63Zm2.16,1.22v9.17h4.45a5.67,5.67,0,0,0,3.56-1.06,4.26,4.26,0,0,0,1.36-3.56,4.16,4.16,0,0,0-1.36-3.51,5.66,5.66,0,0,0-3.56-1Z" style="fill: #233437"/>
            <path d="M458.32,492a1.54,1.54,0,0,1-.83-.25.74.74,0,0,1-.41-.67.6.6,0,0,1,0-.23L464,468.61a.93.93,0,0,1,.49-.57,1.8,1.8,0,0,1,1.61,0,1.05,1.05,0,0,1,.49.55l6.81,22.25a.25.25,0,0,0,0,.1.22.22,0,0,1,0,.1.81.81,0,0,1-.43.67,1.58,1.58,0,0,1-.89.28.78.78,0,0,1-.81-.56l-1.51-5h-9.08l-1.51,5a.58.58,0,0,1-.31.43A1.08,1.08,0,0,1,458.32,492Zm10.88-7.47-4-13.21-4,13.21Z" style="fill: #233437"/>
            <path d="M483.35,468.06a9.26,9.26,0,0,1,2.69.37,5.65,5.65,0,0,1,2.18,1.22,5.54,5.54,0,0,1,1.46,2.16,8.76,8.76,0,0,1,.52,3.22v10a9,9,0,0,1-.52,3.26,5.69,5.69,0,0,1-1.46,2.16,5.63,5.63,0,0,1-2.18,1.21,9.25,9.25,0,0,1-2.69.38h-5.8a1,1,0,0,1-.71-.25.74.74,0,0,1-.27-.57V468.84a.69.69,0,0,1,.27-.55,1,1,0,0,1,.71-.23Zm-4.61,2V490h4.61a4.66,4.66,0,0,0,3.44-1.23A5.07,5.07,0,0,0,488,485V475a5,5,0,0,0-1.25-3.76,4.69,4.69,0,0,0-3.44-1.21Z" style="fill: #233437"/>
            <path d="M494.36,492a1.54,1.54,0,0,1-.83-.25.76.76,0,0,1-.41-.67.6.6,0,0,1,0-.23L500,468.61a1,1,0,0,1,.49-.57,1.8,1.8,0,0,1,1.61,0,1,1,0,0,1,.49.55l6.81,22.25a.25.25,0,0,0,0,.1.22.22,0,0,1,0,.1.81.81,0,0,1-.43.67,1.55,1.55,0,0,1-.88.28.79.79,0,0,1-.82-.56l-1.51-5h-9.08l-1.5,5a.62.62,0,0,1-.32.43A1.08,1.08,0,0,1,494.36,492Zm10.88-7.47-4-13.21-4,13.21Z" style="fill: #233437"/>
          </g>
        </g>
        <g>
          <path d="M134.06,118.29c1.22-6.1,1.57-12.32,2.8-18.43C147.29,48.42,191.68,7.14,243.71,1,278-3,309.2,5.19,336.84,26.18c3.51,2.66,3.55,2.72.29,5.45C329.63,37.9,322,44.07,314.6,50.41c-2,1.67-3.38,1.1-5.18-.09-15.46-10.2-32.54-15.45-51-14.74-33.68,1.31-59.95,16.23-76.71,45.66-21.61,38-13.63,83.4,18.8,112.55,26,23.33,66.5,29,97.85,13.72,8.08-3.93,15.67-8.57,22.16-14.82,2.35-2.27,4.09-2.65,6.61,0,6.3,6.67,12.86,13.09,19.43,19.48,1.88,1.83,2.23,3,.09,5-21.95,20.11-47.53,31.88-77.35,34-33.95,2.44-64.15-7.35-90.11-29.1-24.58-20.61-39.16-47.14-43.83-79-.49-3.38-.17-6.85-1.32-10.13Z" style="fill: #418acd"/>
          <path d="M243.54,169.37a3.44,3.44,0,0,1-2.37-1.69Q219.26,140.86,197.33,114c-1.43-1.75-1.64-2.93.32-4.5,7.72-6.2,15.39-12.46,22.93-18.87,2.39-2,3.43-.44,4.68,1.08q10.58,12.9,21.11,25.83c3.16,3.88,3.09,3.85,7,.59Q293.07,85.57,332.74,53c3.87-3.18,7.85-6.26,11.47-9.71,2.59-2.47,4-1.86,6.11.64A158.78,158.78,0,0,1,365,65c1.43,2.42,1.39,4-.92,5.87-11.47,9.33-22.8,18.83-34.22,28.22q-41.19,33.9-82.42,67.73C246.19,167.79,245.08,169,243.54,169.37Z" style="fill: #56b839"/>
        </g>
      </g>
    </g>
  </g>
</svg>
