<svg xmlns="http://www.w3.org/2000/svg" viewBox="0 0 510.69 492.76">
  <g id="Layer_2" data-name="Layer 2">
    <g id="samples">
      <g>
        <g>
          <g>
            <path d="M85.1,392.38a40.58,40.58,0,0,1-.47,6.21H23.75a20.51,20.51,0,0,0,19.77,14.64,19.6,19.6,0,0,0,15.73-7.48l12.77,17a40,40,0,0,1-28.5,11.37A40.26,40.26,0,0,1,13.94,422,41.69,41.69,0,0,1,14,363.06a40.39,40.39,0,0,1,29.51-12.12A40.17,40.17,0,0,1,73,363.05,39.9,39.9,0,0,1,85.1,392.38Zm-23.51-9.52q-5.76-11.06-18.07-11.05T25.3,382.86Z" style="fill: #fff"/>
            <path d="M164.21,308.43h21.18V413.7h36.28v18.06H164.21Z" style="fill: #fff"/>
            <path d="M230.23,333a11.9,11.9,0,0,1,3.66-8.87,12.33,12.33,0,0,1,9-3.59A12.48,12.48,0,0,1,255.3,333a12.32,12.32,0,0,1-3.58,9,11.92,11.92,0,0,1-8.87,3.65A12.48,12.48,0,0,1,230.23,333Zm2.18,17.91h21v80.82h-21Z" style="fill: #fff"/>
            <path d="M264.18,308.43h21v47.8a40.93,40.93,0,0,1,20.71-5.45,41.73,41.73,0,1,1-41.73,41.58ZM291.28,407a19.93,19.93,0,0,0,14.63,6.07A19.68,19.68,0,0,0,320.47,407a20.08,20.08,0,0,0,6-14.64,20.73,20.73,0,0,0-20.56-20.55,20.09,20.09,0,0,0-14.63,6,19.7,19.7,0,0,0-6.08,14.56A20,20,0,0,0,291.28,407Z" style="fill: #fff"/>
            <path d="M370.46,362.93A40.34,40.34,0,0,1,400,350.78v21a20.11,20.11,0,0,0-14.64,6,19.69,19.69,0,0,0-6.07,14.56v39.4h-21v-39.4A40,40,0,0,1,370.46,362.93Z" style="fill: #fff"/>
            <path d="M488.33,431.76l-4.41-12.15q-12.45,14.64-31.77,14.64a41.27,41.27,0,0,1-39.1-27.41,40.28,40.28,0,0,1-2.49-14.17,41.71,41.71,0,0,1,65.64-34.18,41.14,41.14,0,0,1,15.18,20l19.31,53.26Zm-47.87-22.13a19.75,19.75,0,0,0,11.68,3.75,20,20,0,0,0,14.63-6,20.71,20.71,0,0,0-2.8-31.66,20.63,20.63,0,0,0-11.83-3.59q-10.9,0-16.82,8.75a20.67,20.67,0,0,0-3.74,11.88A19.36,19.36,0,0,0,440.46,409.63Z" style="fill: #fff"/>
          </g>
          <path d="M126.7,382.51c6.09,0,12.17,0,18.26,0,1.47,0,1.91.49,1.88,1.92-.07,4-.06,8,0,11.92,0,1.22-.4,1.68-1.66,1.68q-18.63,0-37.26,0c-1.26,0-1.67-.46-1.65-1.68,0-4,.06-7.95,0-11.92,0-1.43.42-1.94,1.89-1.92C114.33,382.54,120.52,382.51,126.7,382.51Z" style="fill: #fff"/>
          <g>
            <path d="M1.25,492.56a1.55,1.55,0,0,1-.84-.25.76.76,0,0,1-.41-.67.6.6,0,0,1,0-.23l6.86-22.29a1,1,0,0,1,.5-.58,1.71,1.71,0,0,1,.78-.17,1.68,1.68,0,0,1,.82.19,1,1,0,0,1,.5.56l6.82,22.29a.3.3,0,0,0,0,.1.22.22,0,0,1,0,.1.82.82,0,0,1-.43.67,1.64,1.64,0,0,1-.89.28.8.8,0,0,1-.82-.56L12.7,487H3.61L2.1,492a.63.63,0,0,1-.31.43A1.23,1.23,0,0,1,1.25,492.56Zm10.89-7.49-4-13.23-4,13.23Z" style="fill: #fff"/>
            <path d="M30.76,474.54a7,7,0,0,0-.2-1.22,3.39,3.39,0,0,0-.65-1.3,4,4,0,0,0-1.38-1,5.59,5.59,0,0,0-2.37-.42,4.75,4.75,0,0,0-3.51,1.21,5.15,5.15,0,0,0-1.22,3.77v10.18a5.16,5.16,0,0,0,1.24,3.81,5,5,0,0,0,3.62,1.21,5.4,5.4,0,0,0,2.34-.41,3.29,3.29,0,0,0,1.29-1,3.49,3.49,0,0,0,.61-1.31,12.37,12.37,0,0,0,.23-1.3c.06-.56.42-.85,1.08-.85a1.14,1.14,0,0,1,.82.26,1.58,1.58,0,0,1,.26,1.09,5.06,5.06,0,0,1-.45,2.11,5.36,5.36,0,0,1-1.35,1.78A6.41,6.41,0,0,1,29,492.31a8.64,8.64,0,0,1-2.89.45,9,9,0,0,1-2.62-.38,5.66,5.66,0,0,1-2.17-1.22A5.93,5.93,0,0,1,19.81,489a8.74,8.74,0,0,1-.54-3.27V475.55a8.23,8.23,0,0,1,.56-3.23,5.94,5.94,0,0,1,1.49-2.17,5.83,5.83,0,0,1,2.18-1.21,9.24,9.24,0,0,1,2.66-.38A8.62,8.62,0,0,1,29,469a6.25,6.25,0,0,1,2.11,1.19,5.5,5.5,0,0,1,1.32,1.74,5,5,0,0,1,.45,2.1,1.49,1.49,0,0,1-.26,1.07,1.18,1.18,0,0,1-.82.24,1.16,1.16,0,0,1-.8-.22A.87.87,0,0,1,30.76,474.54Z" style="fill: #fff"/>
            <path d="M43.26,492.76a9.3,9.3,0,0,1-2.69-.38A5.51,5.51,0,0,1,37,489a9,9,0,0,1-.52-3.27V475.55a8.86,8.86,0,0,1,.52-3.23,5.45,5.45,0,0,1,3.61-3.38,9.75,9.75,0,0,1,5.39,0,5.6,5.6,0,0,1,2.16,1.21,5.75,5.75,0,0,1,1.45,2.17,8.86,8.86,0,0,1,.52,3.23v10.18a9,9,0,0,1-.52,3.27,5.79,5.79,0,0,1-1.45,2.16A5.62,5.62,0,0,1,46,492.38,9.37,9.37,0,0,1,43.26,492.76Zm4.67-17.21a5.07,5.07,0,0,0-1.24-3.77,4.65,4.65,0,0,0-3.43-1.21,4.68,4.68,0,0,0-3.43,1.21,5.11,5.11,0,0,0-1.23,3.77v10.18a5.16,5.16,0,0,0,1.23,3.81,4.68,4.68,0,0,0,3.43,1.21,4.65,4.65,0,0,0,3.43-1.21,5.12,5.12,0,0,0,1.24-3.81Z" style="fill: #fff"/>
            <path d="M64.14,483.56c-.24.46-.53.69-.88.69s-.62-.23-.86-.69L57,473.16V491.7a.7.7,0,0,1-.35.64,1.31,1.31,0,0,1-.74.22,1.3,1.3,0,0,1-.75-.22.7.7,0,0,1-.33-.64V469.61a.93.93,0,0,1,.33-.82,1.3,1.3,0,0,1,.75-.23,1.32,1.32,0,0,1,1,.45,5.07,5.07,0,0,1,.73,1.06L63.29,481l5.65-10.9a5.07,5.07,0,0,1,.73-1.06,1.32,1.32,0,0,1,1-.45,1.3,1.3,0,0,1,.77.23,1,1,0,0,1,.31.82V491.7a.7.7,0,0,1-.33.64,1.3,1.3,0,0,1-.75.22,1.31,1.31,0,0,1-.74-.22.7.7,0,0,1-.35-.64V473.26Z" style="fill: #fff"/>
            <path d="M76.75,469.35c0-.48.3-.74.92-.79h6a9.19,9.19,0,0,1,2.66.38,5.32,5.32,0,0,1,3.57,3.35,8.77,8.77,0,0,1,.53,3.23v.33a8.81,8.81,0,0,1-.53,3.23,5.73,5.73,0,0,1-1.44,2.17,5.57,5.57,0,0,1-2.17,1.21,9,9,0,0,1-2.69.38H78.91v8.86a.69.69,0,0,1-.34.64,1.33,1.33,0,0,1-.74.22,1.27,1.27,0,0,1-.75-.22.7.7,0,0,1-.33-.64Zm2.16,1.22V481h4.73a4.63,4.63,0,0,0,3.43-1.23A5.16,5.16,0,0,0,88.3,476v-.4a5.11,5.11,0,0,0-1.23-3.77,4.66,4.66,0,0,0-3.43-1.21Z" style="fill: #fff"/>
            <path d="M92.18,492.56a1.55,1.55,0,0,1-.84-.25.76.76,0,0,1-.41-.67.6.6,0,0,1,0-.23l6.86-22.29a1,1,0,0,1,.5-.58,1.71,1.71,0,0,1,.78-.17,1.68,1.68,0,0,1,.82.19,1,1,0,0,1,.5.56l6.82,22.29a.3.3,0,0,0,0,.1.22.22,0,0,1,0,.1.82.82,0,0,1-.43.67,1.66,1.66,0,0,1-.89.28.8.8,0,0,1-.82-.56L103.63,487H94.54L93,492a.63.63,0,0,1-.31.43A1.23,1.23,0,0,1,92.18,492.56Zm10.89-7.49-4-13.23-4,13.23Z" style="fill: #fff"/>
            <path d="M123.2,492.56a1.11,1.11,0,0,1-.82-.38,4,4,0,0,1-.63-.87l-9.12-17.76V491.7a.7.7,0,0,1-.35.64,1.31,1.31,0,0,1-.74.22,1.3,1.3,0,0,1-.75-.22.7.7,0,0,1-.33-.64V469.38a.67.67,0,0,1,.33-.64,1.54,1.54,0,0,1,.75-.18,1.25,1.25,0,0,1,1,.45,5.45,5.45,0,0,1,.72,1.06l8.86,17.46V469.35a.63.63,0,0,1,.33-.61,1.55,1.55,0,0,1,.76-.18,1.59,1.59,0,0,1,.74.18.63.63,0,0,1,.34.61V491.7a.69.69,0,0,1-.34.64A1.33,1.33,0,0,1,123.2,492.56Z" style="fill: #fff"/>
            <path d="M140.92,481h-9.48V491.7a.7.7,0,0,1-.35.64,1.31,1.31,0,0,1-.74.22,1.3,1.3,0,0,1-.75-.22.7.7,0,0,1-.33-.64V469.35a.63.63,0,0,1,.33-.61,1.54,1.54,0,0,1,.75-.18,1.56,1.56,0,0,1,.74.18.63.63,0,0,1,.35.61v9.81h9.48v-9.81a.63.63,0,0,1,.33-.61,1.55,1.55,0,0,1,.76-.18,1.59,1.59,0,0,1,.74.18.63.63,0,0,1,.34.61V491.7a.69.69,0,0,1-.34.64,1.33,1.33,0,0,1-.74.22,1.31,1.31,0,0,1-.76-.22.7.7,0,0,1-.33-.64Z" style="fill: #fff"/>
            <path d="M147.52,492.56a1.6,1.6,0,0,1-.84-.25.76.76,0,0,1-.41-.67.55.55,0,0,1,0-.23l6.86-22.29a1,1,0,0,1,.49-.58,1.89,1.89,0,0,1,1.61,0,1,1,0,0,1,.49.56l6.83,22.29a.3.3,0,0,0,0,.1.25.25,0,0,1,0,.1.8.8,0,0,1-.43.67,1.61,1.61,0,0,1-.88.28.79.79,0,0,1-.82-.56L159,487h-9.09L148.38,492a.64.64,0,0,1-.32.43A1.2,1.2,0,0,1,147.52,492.56Zm10.9-7.49-4-13.23-4,13.23Z" style="fill: #fff"/>
            <path d="M175.13,483.56c-.24.46-.54.69-.89.69s-.61-.23-.85-.69L168,473.16V491.7a.69.69,0,0,1-.34.64,1.33,1.33,0,0,1-.74.22,1.31,1.31,0,0,1-.76-.22.7.7,0,0,1-.32-.64V469.61a.93.93,0,0,1,.32-.82,1.35,1.35,0,0,1,1.76.22,5.09,5.09,0,0,1,.74,1.06l5.65,10.9,5.64-10.9a5.09,5.09,0,0,1,.74-1.06,1.3,1.3,0,0,1,1-.45,1.28,1.28,0,0,1,.77.23,1,1,0,0,1,.31.82V491.7a.72.72,0,0,1-.32.64,1.31,1.31,0,0,1-.76.22,1.33,1.33,0,0,1-.74-.22.69.69,0,0,1-.34-.64V473.26Z" style="fill: #fff"/>
            <path d="M189.9,479.59h5.16a.69.69,0,0,1,.6.3,1.14,1.14,0,0,1,.22.69,1.08,1.08,0,0,1-.18.6.71.71,0,0,1-.64.28H189.9v9.1h10.51a.67.67,0,0,1,.6.31,1.16,1.16,0,0,1,.22.7,1.36,1.36,0,0,1-.18.68.7.7,0,0,1-.64.31H188.72a1.1,1.1,0,0,1-.67-.22.71.71,0,0,1-.31-.64V469.38a.68.68,0,0,1,.31-.62,1.22,1.22,0,0,1,.67-.2h11.69a.69.69,0,0,1,.64.3,1.2,1.2,0,0,1,.18.65,1.22,1.22,0,0,1-.22.74.68.68,0,0,1-.6.32H189.9Z" style="fill: #fff"/>
            <path d="M217.15,492.56a1.11,1.11,0,0,1-.82-.38,4,4,0,0,1-.63-.87l-9.12-17.76V491.7a.7.7,0,0,1-.35.64,1.31,1.31,0,0,1-.74.22,1.3,1.3,0,0,1-.75-.22.7.7,0,0,1-.33-.64V469.38a.67.67,0,0,1,.33-.64,1.54,1.54,0,0,1,.75-.18,1.25,1.25,0,0,1,1,.45,5.45,5.45,0,0,1,.72,1.06l8.86,17.46V469.35a.63.63,0,0,1,.33-.61,1.55,1.55,0,0,1,.76-.18,1.59,1.59,0,0,1,.74.18.63.63,0,0,1,.34.61V491.7a.69.69,0,0,1-.34.64A1.33,1.33,0,0,1,217.15,492.56Z" style="fill: #fff"/>
            <path d="M235.2,468.56a.71.71,0,0,1,.63.31,1.27,1.27,0,0,1,.19.68,1.39,1.39,0,0,1-.19.72.69.69,0,0,1-.63.33h-5.48v21.1a.69.69,0,0,1-.34.64,1.33,1.33,0,0,1-.74.22,1.31,1.31,0,0,1-.76-.22.7.7,0,0,1-.33-.64V470.6H222a.7.7,0,0,1-.61-.32,1.2,1.2,0,0,1-.21-.7,1.25,1.25,0,0,1,.2-.69.67.67,0,0,1,.62-.33Z" style="fill: #fff"/>
            <path d="M245,492.76a9.37,9.37,0,0,1-2.7-.38,5.62,5.62,0,0,1-2.16-1.22,5.79,5.79,0,0,1-1.45-2.16,9,9,0,0,1-.52-3.27V475.55a8.86,8.86,0,0,1,.52-3.23,5.75,5.75,0,0,1,1.45-2.17,5.6,5.6,0,0,1,2.16-1.21,9.75,9.75,0,0,1,5.39,0,5.45,5.45,0,0,1,3.61,3.38,8.86,8.86,0,0,1,.52,3.23v10.18a9,9,0,0,1-.52,3.27,5.51,5.51,0,0,1-3.61,3.38A9.3,9.3,0,0,1,245,492.76Zm4.66-17.21a5.11,5.11,0,0,0-1.23-3.77,5.47,5.47,0,0,0-6.86,0,5.11,5.11,0,0,0-1.24,3.77v10.18a5.16,5.16,0,0,0,1.24,3.81,5.47,5.47,0,0,0,6.86,0,5.16,5.16,0,0,0,1.23-3.81Z" style="fill: #fff"/>
            <path d="M269.93,468.56a9.25,9.25,0,0,1,2.69.38,5.87,5.87,0,0,1,2.19,1.21,5.66,5.66,0,0,1,1.46,2.17,8.86,8.86,0,0,1,.52,3.23v10a9,9,0,0,1-.52,3.27,5.73,5.73,0,0,1-1.46,2.17,5.87,5.87,0,0,1-2.19,1.21,9.25,9.25,0,0,1-2.69.38h-5.81a1,1,0,0,1-.72-.25.73.73,0,0,1-.26-.57V469.35a.7.7,0,0,1,.26-.56,1.05,1.05,0,0,1,.72-.23Zm-4.63,2v20h4.63a4.7,4.7,0,0,0,3.45-1.24,5.12,5.12,0,0,0,1.25-3.79v-10a5.07,5.07,0,0,0-1.25-3.77,4.73,4.73,0,0,0-3.45-1.21Z" style="fill: #fff"/>
            <path d="M281.52,469.35a.63.63,0,0,1,.33-.61,1.51,1.51,0,0,1,.75-.18,1.59,1.59,0,0,1,.74.18.63.63,0,0,1,.35.61V491.7a.7.7,0,0,1-.35.64,1.33,1.33,0,0,1-.74.22,1.27,1.27,0,0,1-.75-.22.7.7,0,0,1-.33-.64Z" style="fill: #fff"/>
            <path d="M299.9,474.54a4.52,4.52,0,0,0-1.36-2.94,4.71,4.71,0,0,0-3.3-1,4.66,4.66,0,0,0-3.43,1.21,5.11,5.11,0,0,0-1.23,3.77v10.18a5.16,5.16,0,0,0,1.23,3.79,5.4,5.4,0,0,0,6.86,0,5.16,5.16,0,0,0,1.23-3.79v-3.91h-4.4a.65.65,0,0,1-.57-.29,1.13,1.13,0,0,1-.21-.66,1,1,0,0,1,.21-.64.69.69,0,0,1,.57-.28h5.78a.7.7,0,0,1,.59.25.93.93,0,0,1,.2.61v4.92a9,9,0,0,1-.53,3.27,5.77,5.77,0,0,1-1.44,2.16,5.66,5.66,0,0,1-2.17,1.22,9.71,9.71,0,0,1-5.38,0,5.45,5.45,0,0,1-3.61-3.38,9,9,0,0,1-.53-3.27V475.55a8.84,8.84,0,0,1,.53-3.23,5.42,5.42,0,0,1,3.59-3.38,9.13,9.13,0,0,1,2.68-.38,8.73,8.73,0,0,1,2.84.43,6.6,6.6,0,0,1,2.16,1.18,4.79,4.79,0,0,1,1.38,1.81,5.36,5.36,0,0,1,.48,2.26,1.08,1.08,0,0,1-.3.89,1.26,1.26,0,0,1-.79.22,1.32,1.32,0,0,1-.73-.18A.72.72,0,0,1,299.9,474.54Z" style="fill: #fff"/>
            <path d="M306.43,469.35a.63.63,0,0,1,.33-.61,1.55,1.55,0,0,1,.76-.18,1.59,1.59,0,0,1,.74.18.63.63,0,0,1,.34.61V491.7a.69.69,0,0,1-.34.64,1.33,1.33,0,0,1-.74.22,1.31,1.31,0,0,1-.76-.22.7.7,0,0,1-.33-.64Z" style="fill: #fff"/>
            <path d="M325.57,468.56a.71.71,0,0,1,.63.31,1.27,1.27,0,0,1,.19.68,1.39,1.39,0,0,1-.19.72.69.69,0,0,1-.63.33h-5.48v21.1a.69.69,0,0,1-.34.64,1.33,1.33,0,0,1-.74.22,1.31,1.31,0,0,1-.76-.22.7.7,0,0,1-.33-.64V470.6h-5.51a.7.7,0,0,1-.61-.32,1.2,1.2,0,0,1-.21-.7,1.33,1.33,0,0,1,.19-.69.69.69,0,0,1,.63-.33Z" style="fill: #fff"/>
            <path d="M327,492.56a1.54,1.54,0,0,1-.83-.25.74.74,0,0,1-.41-.67.6.6,0,0,1,0-.23l6.86-22.29a1,1,0,0,1,.49-.58,1.75,1.75,0,0,1,.79-.17,1.68,1.68,0,0,1,.82.19,1,1,0,0,1,.49.56l6.83,22.29a.3.3,0,0,0,0,.1.25.25,0,0,1,0,.1.81.81,0,0,1-.42.67,1.66,1.66,0,0,1-.89.28A.79.79,0,0,1,340,492L338.44,487h-9.09L327.84,492a.64.64,0,0,1-.32.43A1.2,1.2,0,0,1,327,492.56Zm10.9-7.49-4-13.23-4,13.23Z" style="fill: #fff"/>
            <path d="M346.25,492.56a1.12,1.12,0,0,1-.67-.22.71.71,0,0,1-.31-.64V469.35a.63.63,0,0,1,.33-.61,1.49,1.49,0,0,1,.75-.18,1.59,1.59,0,0,1,.74.18.63.63,0,0,1,.34.61v21.21h9.36a.58.58,0,0,1,.54.31,1.32,1.32,0,0,1,.18.67,1.41,1.41,0,0,1-.18.71.6.6,0,0,1-.54.31Z" style="fill: #fff"/>
            <path d="M373.83,468.56a9.3,9.3,0,0,1,2.69.38,5.76,5.76,0,0,1,2.18,1.21,5.66,5.66,0,0,1,1.46,2.17,8.84,8.84,0,0,1,.53,3.23v10a9,9,0,0,1-.53,3.27,5.46,5.46,0,0,1-3.64,3.38,9.3,9.3,0,0,1-2.69.38H368a1,1,0,0,1-.73-.25.76.76,0,0,1-.26-.57V469.35a.73.73,0,0,1,.26-.56,1.1,1.1,0,0,1,.73-.23Zm-4.63,2v20h4.63a4.69,4.69,0,0,0,3.44-1.24,5.12,5.12,0,0,0,1.25-3.79v-10a5.07,5.07,0,0,0-1.25-3.77,4.72,4.72,0,0,0-3.44-1.21Z" style="fill: #fff"/>
            <path d="M387.58,479.59h5.16a.69.69,0,0,1,.6.3,1.13,1.13,0,0,1,.21.69,1.16,1.16,0,0,1-.17.6.71.71,0,0,1-.64.28h-5.16v9.1h10.51a.67.67,0,0,1,.6.31,1.16,1.16,0,0,1,.22.7,1.36,1.36,0,0,1-.18.68.7.7,0,0,1-.64.31H386.4a1.1,1.1,0,0,1-.67-.22.72.72,0,0,1-.32-.64V469.38a.68.68,0,0,1,.32-.62,1.22,1.22,0,0,1,.67-.2h11.69a.69.69,0,0,1,.64.3,1.2,1.2,0,0,1,.18.65,1.22,1.22,0,0,1-.22.74.68.68,0,0,1-.6.32H387.58Z" style="fill: #fff"/>
            <path d="M408.66,469.35c0-.48.3-.74.91-.79h6a9.15,9.15,0,0,1,2.66.38,5.36,5.36,0,0,1,3.58,3.35,8.77,8.77,0,0,1,.53,3.23v.33a8.81,8.81,0,0,1-.53,3.23,5.39,5.39,0,0,1-3.61,3.38,9,9,0,0,1-2.69.38h-4.73v8.86a.69.69,0,0,1-.34.64,1.33,1.33,0,0,1-.74.22,1.31,1.31,0,0,1-.76-.22.7.7,0,0,1-.32-.64Zm2.16,1.22V481h4.73a4.65,4.65,0,0,0,3.43-1.23,5.16,5.16,0,0,0,1.23-3.79v-.4a5.11,5.11,0,0,0-1.23-3.77,4.68,4.68,0,0,0-3.43-1.21Z" style="fill: #fff"/>
            <path d="M424.08,492.56a1.54,1.54,0,0,1-.83-.25.74.74,0,0,1-.41-.67.6.6,0,0,1,0-.23l6.86-22.29a1,1,0,0,1,.49-.58,1.75,1.75,0,0,1,.79-.17,1.68,1.68,0,0,1,.82.19,1,1,0,0,1,.49.56l6.83,22.29a.3.3,0,0,0,0,.1.22.22,0,0,1,0,.1.82.82,0,0,1-.43.67,1.66,1.66,0,0,1-.89.28.79.79,0,0,1-.82-.56L435.54,487h-9.09L424.94,492a.66.66,0,0,1-.31.43A1.27,1.27,0,0,1,424.08,492.56Zm10.9-7.49-4-13.23-4,13.23Z" style="fill: #fff"/>
            <path d="M442.37,469.35c0-.48.27-.74.82-.79H449a11.86,11.86,0,0,1,2.72.31,5.87,5.87,0,0,1,2.25,1.07,5.19,5.19,0,0,1,1.54,2,7.25,7.25,0,0,1,.58,3.09,7.9,7.9,0,0,1-.39,2.64,5.73,5.73,0,0,1-1.09,1.87,4.76,4.76,0,0,1-1.62,1.2,8.79,8.79,0,0,1-2,.62l5.06,9.72a.71.71,0,0,1,.13.43,1,1,0,0,1-.4.77,1.26,1.26,0,0,1-.85.34.79.79,0,0,1-.67-.37,5,5,0,0,1-.48-.78l-5.06-9.84h-4.16V491.7a.7.7,0,0,1-.35.64,1.33,1.33,0,0,1-.74.22,1.27,1.27,0,0,1-.75-.22.7.7,0,0,1-.33-.64Zm2.17,1.22v9.18H449a5.63,5.63,0,0,0,3.56-1.06,4.25,4.25,0,0,0,1.36-3.56,4.16,4.16,0,0,0-1.36-3.52,5.68,5.68,0,0,0-3.56-1Z" style="fill: #fff"/>
            <path d="M459.18,492.56a1.55,1.55,0,0,1-.84-.25.74.74,0,0,1-.41-.67.6.6,0,0,1,0-.23l6.86-22.29a1,1,0,0,1,.49-.58,1.75,1.75,0,0,1,.79-.17,1.68,1.68,0,0,1,.82.19,1,1,0,0,1,.49.56l6.83,22.29a.3.3,0,0,0,0,.1.22.22,0,0,1,0,.1.82.82,0,0,1-.43.67,1.66,1.66,0,0,1-.89.28.8.8,0,0,1-.82-.56L470.63,487h-9.09L460,492a.66.66,0,0,1-.31.43A1.26,1.26,0,0,1,459.18,492.56Zm10.89-7.49-4-13.23-4,13.23Z" style="fill: #fff"/>
            <path d="M484.25,468.56a9.37,9.37,0,0,1,2.7.38,5.76,5.76,0,0,1,2.18,1.21,5.66,5.66,0,0,1,1.46,2.17,8.84,8.84,0,0,1,.53,3.23v10a9,9,0,0,1-.53,3.27,5.46,5.46,0,0,1-3.64,3.38,9.37,9.37,0,0,1-2.7.38h-5.81a1,1,0,0,1-.72-.25.76.76,0,0,1-.26-.57V469.35a.73.73,0,0,1,.26-.56,1.09,1.09,0,0,1,.72-.23Zm-4.62,2v20h4.62a4.7,4.7,0,0,0,3.45-1.24,5.12,5.12,0,0,0,1.25-3.79v-10a5.07,5.07,0,0,0-1.25-3.77,4.73,4.73,0,0,0-3.45-1.21Z" style="fill: #fff"/>
            <path d="M495.28,492.56a1.54,1.54,0,0,1-.83-.25.74.74,0,0,1-.41-.67.6.6,0,0,1,0-.23l6.86-22.29a1,1,0,0,1,.49-.58,1.75,1.75,0,0,1,.79-.17,1.68,1.68,0,0,1,.82.19,1,1,0,0,1,.49.56l6.83,22.29a.3.3,0,0,0,0,.1.25.25,0,0,1,0,.1.81.81,0,0,1-.42.67,1.66,1.66,0,0,1-.89.28.8.8,0,0,1-.82-.56L506.74,487h-9.09L496.14,492a.64.64,0,0,1-.32.43A1.2,1.2,0,0,1,495.28,492.56Zm10.9-7.49-4-13.23-4,13.23Z" style="fill: #fff"/>
          </g>
        </g>
        <g>
          <path d="M135,118.29c1.22-6.1,1.56-12.32,2.8-18.43C148.24,48.42,192.63,7.14,244.66,1,279-3,310.15,5.19,337.79,26.18c3.51,2.66,3.54,2.72.29,5.45-7.5,6.27-15.09,12.44-22.53,18.78-2,1.67-3.38,1.1-5.19-.09-15.45-10.2-32.53-15.45-51-14.74-33.68,1.31-59.95,16.23-76.71,45.66-21.61,38-13.63,83.4,18.8,112.55,26,23.33,66.49,29,97.85,13.72,8.08-3.93,15.66-8.57,22.15-14.82,2.35-2.27,4.09-2.65,6.62,0,6.3,6.67,12.86,13.09,19.43,19.48,1.88,1.83,2.22,3,.09,5-21.95,20.11-47.53,31.88-77.35,34-34,2.44-64.16-7.35-90.11-29.1-24.58-20.61-39.17-47.14-43.83-79-.49-3.38-.17-6.85-1.32-10.13Z" style="fill: #fff"/>
          <path d="M244.49,169.37a3.44,3.44,0,0,1-2.37-1.69Q220.21,140.86,198.28,114c-1.44-1.75-1.64-2.93.32-4.5,7.71-6.2,15.39-12.46,22.92-18.87,2.4-2,3.44-.44,4.68,1.08q10.59,12.9,21.12,25.83c3.16,3.88,3.08,3.85,7.05.59Q294,85.57,333.69,53c3.87-3.18,7.85-6.26,11.47-9.71,2.59-2.47,4-1.86,6.11.64a158.71,158.71,0,0,1,14.64,21c1.44,2.42,1.4,4-.91,5.87-11.47,9.33-22.8,18.83-34.22,28.22q-41.19,33.9-82.42,67.73C247.14,167.79,246,169,244.49,169.37Z" style="fill: #56b839"/>
        </g>
      </g>
    </g>
  </g>
</svg>
